<svg width="274" height="205" viewBox="0 0 274 205" fill="none" xmlns="http://www.w3.org/2000/svg">
<g clip-path="url(#clip0_637_55)">
<path d="M227.13 144.186C226.58 144.186 226.031 144.044 225.54 143.762L220.181 140.675C219.87 140.496 219.684 140.175 219.684 139.817C219.684 139.459 219.87 139.139 220.181 138.96L225.54 135.873C226.52 135.308 227.739 135.308 228.72 135.873L234.08 138.96C234.391 139.139 234.576 139.459 234.576 139.817C234.576 140.175 234.391 140.496 234.08 140.675L228.72 143.762C228.23 144.044 227.68 144.186 227.13 144.186ZM227.13 136.297C226.727 136.297 226.324 136.4 225.965 136.607L220.605 139.694C220.543 139.73 220.534 139.787 220.534 139.817C220.534 139.847 220.544 139.904 220.605 139.941L225.965 143.028H225.966C226.683 143.441 227.576 143.441 228.295 143.028L233.655 139.941C233.717 139.905 233.726 139.848 233.726 139.817C233.726 139.787 233.717 139.73 233.655 139.694L228.295 136.607C227.935 136.4 227.532 136.297 227.13 136.297Z" fill="url(#paint0_linear_637_55)"/>
<path d="M211.801 126.669C210.907 126.669 210.015 126.44 209.218 125.981L199.994 120.668C199.555 120.415 199.293 119.963 199.293 119.457C199.293 118.951 199.555 118.499 199.994 118.246L209.218 112.934C210.81 112.016 212.79 112.016 214.383 112.934L223.607 118.246C224.046 118.499 224.308 118.951 224.308 119.457C224.308 119.962 224.047 120.415 223.608 120.668L214.384 125.981C213.587 126.439 212.693 126.669 211.801 126.669ZM209.643 125.247C210.975 126.013 212.627 126.013 213.959 125.247L223.183 119.935C223.431 119.791 223.458 119.553 223.458 119.457C223.458 119.361 223.431 119.124 223.183 118.98L213.958 113.668C212.627 112.902 210.974 112.902 209.642 113.668L200.419 118.98C200.17 119.124 200.143 119.361 200.143 119.457C200.143 119.553 200.17 119.791 200.419 119.934L209.643 125.247Z" fill="url(#paint1_linear_637_55)"/>
<path d="M46.8426 135.507C45.9493 135.507 45.0565 135.278 44.2601 134.819L35.0355 129.507C34.5961 129.253 34.3345 128.801 34.3345 128.295C34.3345 127.79 34.5966 127.337 35.0355 127.085L44.2592 121.772C45.8516 120.854 47.8317 120.854 49.4246 121.772L58.6483 127.085C59.0876 127.338 59.3498 127.79 59.3498 128.296C59.3498 128.802 59.0876 129.254 58.6483 129.507L49.425 134.819C48.6291 135.278 47.7354 135.507 46.8426 135.507ZM46.8421 121.932C46.0959 121.932 45.3497 122.124 44.6839 122.507L35.4602 127.819C35.2113 127.962 35.1843 128.2 35.1843 128.296C35.1843 128.392 35.2113 128.629 35.4606 128.773L44.6844 134.086C46.016 134.852 47.6687 134.852 49.0003 134.086L58.2236 128.773C58.473 128.63 58.4994 128.392 58.4994 128.296C58.4994 128.201 58.4725 127.963 58.2236 127.819L48.9999 122.507C48.334 122.123 47.5879 121.932 46.8421 121.932Z" fill="url(#paint2_linear_637_55)"/>
<path opacity="0.6" d="M140.27 159.474L74.3137 121.487C73.3525 120.933 73.473 119.966 74.5832 119.326L116.915 94.9456C118.025 94.3064 119.704 94.2367 120.665 94.7907L186.622 132.779C187.583 133.332 187.462 134.3 186.352 134.939L144.021 159.319C142.911 159.959 141.231 160.028 140.27 159.474Z" fill="#020230"/>
<path d="M141.781 166.332C141.01 166.332 140.271 166.172 139.706 165.847H139.706L64.4301 122.492C63.815 122.139 63.4766 121.628 63.4766 121.055C63.4766 120.397 63.936 119.755 64.737 119.293L116.05 89.3029C117.457 88.492 119.525 88.4141 120.758 89.1243L196.034 132.48C196.649 132.833 196.987 133.344 196.987 133.917C196.987 134.575 196.528 135.217 195.726 135.678L144.414 165.669C143.651 166.108 142.694 166.332 141.781 166.332ZM118.693 89.4901C117.922 89.4901 117.102 89.6756 116.477 90.035L65.1649 120.025C64.6392 120.328 64.3269 120.713 64.3269 121.054C64.3269 121.385 64.6141 121.619 64.8548 121.758L140.131 165.113H140.131C141.092 165.667 142.858 165.586 143.986 164.936L195.299 134.945C195.824 134.643 196.137 134.259 196.137 133.916C196.137 133.587 195.85 133.352 195.609 133.213L120.333 89.8578C119.904 89.6113 119.314 89.4901 118.693 89.4901Z" fill="url(#paint3_linear_637_55)"/>
<path d="M204.143 69.0923L138.447 31.2543C137.995 30.9942 137.524 30.9404 137.106 31.062L137.106 31.0625C137.104 31.0629 137.102 31.0639 137.1 31.0643L135.883 31.4871L136.312 31.5882C136.14 31.7909 136.002 32.0424 135.911 32.3376L121.053 80.4584C120.685 81.6515 121.225 83.1015 122.258 83.6965L187.955 121.534C188.114 121.626 188.277 121.69 188.438 121.731L188.275 122.085L189.437 121.678L189.435 121.677C189.911 121.488 190.303 121.063 190.492 120.451L205.349 72.3299C205.716 71.1368 205.176 69.6872 204.143 69.0923Z" fill="url(#paint4_radial_637_55)"/>
<path d="M185.602 123.331L185.626 123.359L120.734 85.9851C119.78 85.4353 118.112 85.5045 117.01 86.1391L75.0841 110.286L73.6863 109.754L74.079 111.71L74.0808 111.709C74.1329 112.004 74.3393 112.279 74.7101 112.493L140.202 150.213C141.156 150.762 142.824 150.693 143.926 150.059L185.959 125.85C186.477 125.551 186.776 125.181 186.85 124.814L186.852 124.817L187.253 122.913L185.602 123.331Z" fill="url(#paint5_radial_637_55)"/>
<path d="M140.27 148.49L74.3137 110.503C73.3525 109.95 73.473 108.982 74.5832 108.343L116.915 83.9624C118.025 83.3233 119.704 83.2536 120.665 83.8075L186.622 121.795C187.583 122.348 187.462 123.316 186.352 123.955L144.021 148.336C142.911 148.975 141.231 149.044 140.27 148.49Z" fill="url(#paint6_radial_637_55)"/>
<path d="M186.352 123.443L144.021 147.823C142.91 148.463 141.231 148.532 140.27 147.978L74.3136 109.991C73.9862 109.802 73.7939 109.564 73.714 109.309C73.5866 109.75 73.7729 110.192 74.3136 110.503L140.27 148.49C141.232 149.044 142.911 148.975 144.021 148.336L186.353 123.955C187.085 123.534 187.377 122.971 187.222 122.477C187.122 122.82 186.838 123.163 186.352 123.443Z" fill="white"/>
<g opacity="0.4">
<path d="M105.774 104.339L103.547 103.056C103.368 102.953 103.391 102.773 103.597 102.655L106.226 101.141C106.432 101.022 106.744 101.009 106.923 101.112L109.15 102.394C109.329 102.497 109.306 102.677 109.1 102.796L106.471 104.31C106.265 104.429 105.953 104.442 105.774 104.339Z" fill="#06033E"/>
<path d="M109.213 106.319L106.986 105.037C106.807 104.934 106.83 104.754 107.036 104.635L109.665 103.121C109.871 103.003 110.184 102.99 110.362 103.093L112.589 104.375C112.768 104.478 112.745 104.658 112.539 104.777L109.91 106.291C109.704 106.409 109.392 106.422 109.213 106.319Z" fill="#06033E"/>
<path d="M112.652 108.3L110.425 107.017C110.246 106.914 110.269 106.734 110.475 106.615L113.104 105.102C113.31 104.983 113.623 104.97 113.801 105.073L116.028 106.355C116.206 106.458 116.184 106.638 115.978 106.757L113.349 108.271C113.143 108.39 112.83 108.403 112.652 108.3Z" fill="#06033E"/>
<path d="M117.408 106.664L115.181 105.382C115.002 105.279 115.025 105.099 115.231 104.98L117.438 103.71C117.644 103.591 117.956 103.578 118.135 103.681L120.362 104.963C120.54 105.066 120.518 105.246 120.311 105.365L118.105 106.636C117.899 106.755 117.587 106.767 117.408 106.664Z" fill="#06033E"/>
<path d="M120.847 108.645L118.62 107.363C118.441 107.26 118.464 107.08 118.67 106.961L120.877 105.69C121.083 105.571 121.396 105.559 121.574 105.662L123.801 106.944C123.98 107.047 123.957 107.227 123.751 107.346L121.544 108.616C121.338 108.735 121.025 108.748 120.847 108.645Z" fill="#06033E"/>
<path d="M124.285 110.625L122.059 109.343C121.88 109.24 121.903 109.06 122.109 108.941L124.316 107.671C124.522 107.552 124.834 107.539 125.013 107.642L127.24 108.924C127.419 109.027 127.396 109.207 127.189 109.326L124.983 110.597C124.777 110.715 124.464 110.728 124.285 110.625Z" fill="#06033E"/>
<path d="M127.724 112.606L125.497 111.324C125.318 111.221 125.341 111.041 125.548 110.922L127.754 109.651C127.96 109.532 128.273 109.52 128.451 109.623L130.678 110.905C130.857 111.008 130.834 111.188 130.628 111.307L128.421 112.577C128.216 112.696 127.903 112.709 127.724 112.606Z" fill="#06033E"/>
<path d="M131.163 114.586L128.937 113.304C128.758 113.201 128.78 113.021 128.987 112.902L131.193 111.632C131.4 111.513 131.712 111.5 131.891 111.603L134.118 112.885C134.296 112.988 134.274 113.168 134.067 113.287L131.861 114.558C131.654 114.677 131.342 114.689 131.163 114.586Z" fill="#06033E"/>
<path d="M134.602 116.567L132.375 115.285C132.196 115.182 132.219 115.002 132.425 114.883L134.632 113.612C134.838 113.494 135.15 113.481 135.329 113.584L137.556 114.866C137.734 114.969 137.712 115.149 137.505 115.268L135.299 116.538C135.093 116.657 134.78 116.67 134.602 116.567Z" fill="#06033E"/>
<path d="M138.041 118.548L135.814 117.265C135.635 117.163 135.658 116.983 135.864 116.864L138.07 115.593C138.277 115.474 138.589 115.461 138.768 115.564L140.994 116.847C141.173 116.95 141.15 117.13 140.944 117.249L138.737 118.519C138.532 118.638 138.22 118.651 138.041 118.548Z" fill="#06033E"/>
<path d="M141.479 120.528L139.253 119.246C139.074 119.143 139.096 118.963 139.303 118.844L141.509 117.573C141.716 117.454 142.028 117.442 142.207 117.545L144.433 118.827C144.613 118.93 144.59 119.11 144.383 119.229L142.177 120.499C141.971 120.618 141.658 120.631 141.479 120.528Z" fill="#06033E"/>
<path d="M144.919 122.509L142.692 121.227C142.513 121.124 142.536 120.944 142.742 120.825L144.949 119.554C145.155 119.435 145.467 119.423 145.646 119.526L147.873 120.808C148.052 120.911 148.029 121.091 147.822 121.21L145.616 122.48C145.409 122.599 145.097 122.612 144.919 122.509Z" fill="#06033E"/>
<path d="M148.357 124.489L146.13 123.207C145.951 123.104 145.974 122.924 146.181 122.805L148.387 121.535C148.593 121.416 148.906 121.403 149.084 121.506L151.311 122.788C151.489 122.891 151.467 123.071 151.261 123.19L149.054 124.461C148.848 124.579 148.536 124.592 148.357 124.489Z" fill="#06033E"/>
<path d="M122.475 105.727L120.248 104.444C120.069 104.341 120.092 104.162 120.298 104.043L122.504 102.772C122.711 102.653 123.023 102.64 123.202 102.743L125.429 104.026C125.607 104.129 125.585 104.309 125.379 104.428L123.172 105.698C122.966 105.817 122.653 105.83 122.475 105.727Z" fill="#06033E"/>
<path d="M118.984 103.716L116.758 102.434C116.579 102.331 116.602 102.151 116.808 102.032L119.014 100.761C119.221 100.642 119.533 100.629 119.712 100.732L121.939 102.015C122.118 102.118 122.095 102.298 121.888 102.417L119.682 103.687C119.476 103.807 119.163 103.819 118.984 103.716Z" fill="#06033E"/>
<path d="M115.489 101.703L110.693 98.9408C110.514 98.8378 110.537 98.6579 110.743 98.539L112.949 97.2684C113.156 97.1495 113.468 97.1368 113.647 97.2397L118.442 100.002C118.621 100.105 118.599 100.285 118.392 100.404L116.186 101.674C115.98 101.793 115.668 101.806 115.489 101.703Z" fill="#06033E"/>
<path d="M117.932 99.2543L114.04 97.0125C113.861 96.9096 113.884 96.7296 114.09 96.6107L116.297 95.3397C116.503 95.2208 116.815 95.2081 116.994 95.311L120.886 97.5528C121.065 97.6558 121.042 97.8357 120.836 97.9546L118.63 99.2252C118.423 99.3445 118.111 99.3577 117.932 99.2543Z" fill="#06033E"/>
<path d="M125.913 107.707L123.687 106.425C123.508 106.322 123.53 106.142 123.737 106.023L125.943 104.752C126.149 104.633 126.462 104.62 126.64 104.723L128.867 106.006C129.046 106.108 129.023 106.288 128.817 106.407L126.611 107.678C126.405 107.797 126.092 107.81 125.913 107.707Z" fill="#06033E"/>
<path d="M129.352 109.688L127.125 108.405C126.947 108.302 126.969 108.122 127.176 108.004L129.382 106.733C129.588 106.614 129.901 106.601 130.079 106.704L132.306 107.986C132.485 108.089 132.462 108.269 132.256 108.388L130.049 109.659C129.843 109.778 129.531 109.791 129.352 109.688Z" fill="#06033E"/>
<path d="M132.791 111.668L130.565 110.386C130.386 110.283 130.408 110.103 130.615 109.984L132.821 108.713C133.028 108.594 133.34 108.582 133.519 108.685L135.745 109.967C135.924 110.07 135.902 110.25 135.695 110.369L133.489 111.639C133.282 111.758 132.97 111.771 132.791 111.668Z" fill="#06033E"/>
<path d="M136.23 113.649L134.003 112.367C133.824 112.264 133.847 112.084 134.054 111.965L136.26 110.694C136.467 110.575 136.779 110.563 136.957 110.666L139.184 111.948C139.363 112.051 139.34 112.231 139.134 112.35L136.928 113.62C136.721 113.739 136.409 113.752 136.23 113.649Z" fill="#06033E"/>
<path d="M139.669 115.63L137.442 114.347C137.263 114.244 137.286 114.064 137.492 113.945L139.698 112.675C139.905 112.556 140.217 112.543 140.396 112.646L142.622 113.929C142.801 114.032 142.778 114.212 142.572 114.33L140.365 115.601C140.16 115.719 139.848 115.733 139.669 115.63Z" fill="#06033E"/>
<path d="M143.107 117.61L140.881 116.327C140.702 116.225 140.725 116.045 140.931 115.926L143.138 114.655C143.344 114.536 143.656 114.523 143.835 114.626L146.062 115.909C146.241 116.012 146.218 116.192 146.011 116.311L143.805 117.581C143.599 117.7 143.286 117.713 143.107 117.61Z" fill="#06033E"/>
<path d="M146.546 119.591L144.32 118.308C144.141 118.205 144.164 118.025 144.37 117.906L146.577 116.636C146.783 116.517 147.095 116.504 147.274 116.607L149.501 117.89C149.68 117.993 149.657 118.172 149.45 118.291L147.244 119.562C147.037 119.68 146.725 119.694 146.546 119.591Z" fill="#06033E"/>
<path d="M149.985 121.571L147.758 120.289C147.579 120.186 147.602 120.006 147.809 119.887L150.015 118.616C150.222 118.497 150.534 118.485 150.713 118.588L152.939 119.87C153.118 119.973 153.095 120.153 152.889 120.272L150.683 121.542C150.476 121.661 150.164 121.674 149.985 121.571Z" fill="#06033E"/>
<path d="M153.424 123.552L151.197 122.269C151.019 122.166 151.041 121.986 151.247 121.868L153.454 120.597C153.66 120.478 153.972 120.465 154.151 120.568L156.378 121.851C156.557 121.954 156.534 122.134 156.328 122.253L154.122 123.523C153.915 123.642 153.603 123.655 153.424 123.552Z" fill="#06033E"/>
<path d="M159.537 127.073L154.679 124.274C154.5 124.171 154.523 123.991 154.729 123.872L156.936 122.601C157.142 122.483 157.454 122.47 157.633 122.573L162.492 125.371C162.671 125.474 162.648 125.654 162.441 125.773L160.235 127.044C160.029 127.163 159.716 127.176 159.537 127.073Z" fill="#06033E"/>
<path d="M166.233 123.217L162.132 120.855C161.953 120.752 161.976 120.572 162.182 120.453L164.389 119.182C164.595 119.064 164.907 119.051 165.086 119.154L169.187 121.516C169.365 121.619 169.343 121.799 169.137 121.918L166.93 123.188C166.723 123.307 166.411 123.32 166.233 123.217Z" fill="#06033E"/>
<path d="M131.936 107.32L129.709 106.037C129.53 105.935 129.553 105.755 129.759 105.636L131.965 104.365C132.172 104.246 132.484 104.233 132.663 104.336L134.89 105.619C135.069 105.722 135.046 105.902 134.839 106.021L132.633 107.291C132.427 107.41 132.115 107.423 131.936 107.32Z" fill="#06033E"/>
<path d="M128.411 105.29L126.185 104.007C126.006 103.904 126.028 103.725 126.235 103.606L128.442 102.335C128.648 102.216 128.96 102.203 129.139 102.306L131.366 103.589C131.545 103.692 131.522 103.872 131.315 103.991L129.109 105.261C128.902 105.38 128.59 105.393 128.411 105.29Z" fill="#06033E"/>
<path d="M124.887 103.26L122.66 101.977C122.481 101.874 122.504 101.695 122.71 101.576L124.917 100.305C125.123 100.186 125.436 100.173 125.614 100.276L127.841 101.559C128.02 101.662 127.997 101.842 127.791 101.961L125.585 103.231C125.378 103.35 125.066 103.363 124.887 103.26Z" fill="#06033E"/>
<path d="M121.363 101.23L119.136 99.9476C118.957 99.8447 118.98 99.6647 119.186 99.5458L121.392 98.2753C121.599 98.1564 121.911 98.1436 122.09 98.2466L124.316 99.529C124.495 99.6319 124.473 99.8119 124.266 99.9308L122.059 101.201C121.854 101.32 121.541 101.333 121.363 101.23Z" fill="#06033E"/>
<path d="M135.375 109.3L133.148 108.018C132.969 107.915 132.992 107.735 133.198 107.616L135.405 106.345C135.611 106.226 135.923 106.213 136.102 106.316L138.329 107.599C138.508 107.701 138.485 107.881 138.278 108L136.072 109.271C135.865 109.39 135.553 109.403 135.375 109.3Z" fill="#06033E"/>
<path d="M138.813 111.281L136.587 109.998C136.408 109.895 136.43 109.716 136.637 109.597L138.843 108.326C139.049 108.207 139.362 108.194 139.54 108.297L141.767 109.58C141.946 109.683 141.923 109.863 141.717 109.982L139.51 111.253C139.304 111.371 138.992 111.384 138.813 111.281Z" fill="#06033E"/>
<path d="M142.252 113.261L140.025 111.979C139.846 111.876 139.869 111.696 140.075 111.577L142.282 110.306C142.488 110.187 142.8 110.174 142.979 110.277L145.206 111.56C145.385 111.663 145.362 111.843 145.156 111.962L142.95 113.232C142.743 113.351 142.431 113.364 142.252 113.261Z" fill="#06033E"/>
<path d="M145.691 115.242L143.464 113.96C143.285 113.857 143.308 113.677 143.514 113.558L145.72 112.287C145.927 112.168 146.239 112.155 146.418 112.258L148.644 113.54C148.823 113.643 148.801 113.823 148.594 113.942L146.388 115.213C146.182 115.332 145.87 115.345 145.691 115.242Z" fill="#06033E"/>
<path d="M149.13 117.223L146.903 115.94C146.724 115.837 146.747 115.657 146.953 115.538L149.16 114.268C149.366 114.149 149.678 114.136 149.857 114.239L152.084 115.522C152.263 115.625 152.24 115.805 152.033 115.923L149.827 117.194C149.621 117.312 149.308 117.326 149.13 117.223Z" fill="#06033E"/>
<path d="M152.569 119.203L150.342 117.92C150.163 117.818 150.186 117.638 150.392 117.519L152.599 116.248C152.805 116.129 153.118 116.116 153.296 116.219L155.523 117.501C155.702 117.604 155.679 117.784 155.473 117.903L153.266 119.174C153.06 119.293 152.747 119.306 152.569 119.203Z" fill="#06033E"/>
<path d="M156.007 121.184L153.781 119.901C153.602 119.798 153.625 119.618 153.831 119.499L156.038 118.229C156.244 118.11 156.556 118.097 156.735 118.2L158.962 119.483C159.14 119.586 159.118 119.765 158.911 119.884L156.705 121.155C156.499 121.274 156.186 121.287 156.007 121.184Z" fill="#06033E"/>
<path d="M159.446 123.164L157.22 121.882C157.041 121.779 157.063 121.599 157.27 121.48L159.477 120.209C159.683 120.09 159.995 120.078 160.174 120.181L162.401 121.463C162.579 121.566 162.557 121.746 162.35 121.865L160.144 123.135C159.937 123.254 159.625 123.267 159.446 123.164Z" fill="#06033E"/>
<path d="M162.885 125.145L160.658 123.862C160.479 123.759 160.502 123.58 160.709 123.461L162.915 122.19C163.121 122.071 163.433 122.058 163.612 122.161L165.839 123.444C166.018 123.547 165.995 123.727 165.789 123.846L163.582 125.117C163.376 125.235 163.064 125.248 162.885 125.145Z" fill="#06033E"/>
<path d="M130.125 102.421L127.898 101.138C127.719 101.035 127.742 100.855 127.948 100.736L130.154 99.4659C130.361 99.347 130.673 99.3343 130.852 99.4372L133.079 100.72C133.258 100.823 133.235 101.003 133.029 101.121L130.823 102.392C130.616 102.511 130.304 102.524 130.125 102.421Z" fill="#06033E"/>
<path d="M126.703 100.45L124.476 99.1676C124.298 99.0646 124.32 98.8847 124.526 98.7658L126.733 97.4948C126.939 97.3759 127.251 97.3631 127.43 97.4661L129.657 98.7484C129.836 98.8514 129.813 99.0313 129.607 99.1502L127.401 100.421C127.194 100.54 126.882 100.553 126.703 100.45Z" fill="#06033E"/>
<path d="M123.282 98.4792L121.055 97.1969C120.876 97.0939 120.899 96.914 121.105 96.7951L123.311 95.524C123.518 95.4051 123.83 95.3924 124.009 95.4954L126.235 96.7777C126.414 96.8807 126.391 97.0606 126.185 97.1795L123.979 98.4505C123.772 98.5694 123.46 98.5822 123.282 98.4792Z" fill="#06033E"/>
<path d="M119.86 96.5086L117.633 95.2262C117.455 95.1232 117.477 94.9433 117.683 94.8244L119.89 93.5538C120.096 93.4349 120.408 93.4222 120.587 93.5251L122.814 94.8075C122.993 94.9105 122.97 95.0904 122.763 95.2093L120.557 96.4799C120.351 96.5988 120.038 96.6115 119.86 96.5086Z" fill="#06033E"/>
<path d="M123.378 94.4823L121.152 93.1999C120.973 93.0969 120.996 92.917 121.202 92.7981L121.931 92.3781C122.138 92.2592 122.45 92.2464 122.629 92.3494L124.855 93.6317C125.034 93.7347 125.011 93.9146 124.805 94.0335L124.076 94.4536C123.869 94.572 123.557 94.5852 123.378 94.4823Z" fill="#06033E"/>
<path d="M127.844 97.0538L125.617 95.7714C125.439 95.6685 125.461 95.4885 125.667 95.3696L126.397 94.9496C126.603 94.8307 126.915 94.8179 127.094 94.9209L129.321 96.2033C129.5 96.3062 129.477 96.4862 129.27 96.6051L128.541 97.0251C128.335 97.144 128.022 97.1568 127.844 97.0538Z" fill="#06033E"/>
<path d="M131.251 99.0164L129.024 97.7341C128.845 97.6311 128.868 97.4512 129.075 97.3323L129.804 96.9122C130.01 96.7933 130.323 96.7806 130.502 96.8835L132.728 98.1659C132.907 98.2689 132.884 98.4488 132.678 98.5677L131.949 98.9877C131.742 99.1066 131.43 99.1194 131.251 99.0164Z" fill="#06033E"/>
<path d="M134.659 100.979L132.432 99.6965C132.253 99.5935 132.276 99.4136 132.482 99.2947L133.211 98.8746C133.418 98.7557 133.73 98.743 133.909 98.8459L136.135 100.128C136.314 100.231 136.292 100.411 136.085 100.53L135.356 100.95C135.149 101.069 134.837 101.082 134.659 100.979Z" fill="#06033E"/>
<path d="M138.066 102.941L135.839 101.659C135.66 101.556 135.683 101.376 135.889 101.257L136.619 100.837C136.825 100.718 137.137 100.706 137.316 100.809L139.543 102.091C139.722 102.194 139.699 102.374 139.492 102.493L138.763 102.913C138.557 103.032 138.245 103.044 138.066 102.941Z" fill="#06033E"/>
<path d="M157.089 113.898L154.862 112.616C154.684 112.513 154.706 112.333 154.913 112.214L155.642 111.794C155.848 111.675 156.161 111.662 156.339 111.765L158.566 113.048C158.745 113.15 158.722 113.33 158.516 113.449L157.787 113.869C157.581 113.988 157.268 114.001 157.089 113.898Z" fill="#06033E"/>
<path d="M160.497 115.86L158.27 114.578C158.091 114.475 158.114 114.295 158.32 114.176L159.05 113.756C159.256 113.637 159.568 113.624 159.747 113.727L161.974 115.01C162.153 115.113 162.13 115.293 161.924 115.411L161.195 115.831C160.988 115.95 160.675 115.964 160.497 115.86Z" fill="#06033E"/>
<path d="M163.904 117.823L161.678 116.54C161.499 116.437 161.521 116.257 161.728 116.138L162.457 115.718C162.664 115.599 162.976 115.587 163.154 115.69L165.381 116.972C165.56 117.075 165.537 117.255 165.331 117.374L164.602 117.794C164.395 117.913 164.083 117.926 163.904 117.823Z" fill="#06033E"/>
<path d="M167.312 119.785L165.085 118.503C164.906 118.4 164.929 118.22 165.135 118.101L165.864 117.681C166.071 117.562 166.383 117.549 166.562 117.652L168.788 118.935C168.967 119.038 168.945 119.218 168.738 119.337L168.009 119.757C167.802 119.875 167.491 119.888 167.312 119.785Z" fill="#06033E"/>
<path d="M133.564 104.402L131.337 103.119C131.158 103.016 131.181 102.836 131.387 102.717L133.593 101.447C133.8 101.328 134.112 101.315 134.291 101.418L136.517 102.701C136.696 102.804 136.673 102.983 136.467 103.102L134.261 104.373C134.055 104.491 133.743 104.505 133.564 104.402Z" fill="#06033E"/>
<path d="M137.003 106.382L134.776 105.099C134.597 104.997 134.62 104.817 134.826 104.698L137.032 103.427C137.239 103.308 137.551 103.295 137.73 103.398L139.956 104.681C140.135 104.784 140.113 104.964 139.906 105.083L137.7 106.353C137.494 106.472 137.181 106.485 137.003 106.382Z" fill="#06033E"/>
<path d="M140.441 108.363L138.215 107.08C138.036 106.977 138.059 106.797 138.265 106.678L140.471 105.408C140.678 105.289 140.99 105.276 141.168 105.379L143.395 106.662C143.574 106.764 143.551 106.944 143.345 107.063L141.138 108.334C140.932 108.453 140.62 108.466 140.441 108.363Z" fill="#06033E"/>
<path d="M143.88 110.343L141.653 109.061C141.474 108.958 141.497 108.778 141.704 108.659L143.91 107.389C144.117 107.27 144.429 107.257 144.608 107.36L146.834 108.642C147.013 108.745 146.99 108.925 146.784 109.044L144.578 110.315C144.372 110.433 144.059 110.446 143.88 110.343Z" fill="#06033E"/>
<path d="M147.319 112.324L145.092 111.041C144.914 110.938 144.936 110.758 145.143 110.64L147.349 109.369C147.556 109.25 147.868 109.237 148.047 109.34L150.273 110.623C150.452 110.726 150.43 110.906 150.223 111.025L148.017 112.296C147.81 112.414 147.498 112.427 147.319 112.324Z" fill="#06033E"/>
<path d="M150.758 114.304L148.531 113.022C148.352 112.919 148.375 112.739 148.581 112.62L150.788 111.35C150.994 111.231 151.307 111.218 151.485 111.321L153.712 112.603C153.891 112.706 153.868 112.886 153.662 113.005L151.455 114.276C151.249 114.394 150.936 114.407 150.758 114.304Z" fill="#06033E"/>
<path d="M154.197 116.285L151.97 115.002C151.791 114.899 151.814 114.719 152.02 114.6L154.227 113.33C154.433 113.211 154.745 113.198 154.924 113.301L157.151 114.584C157.33 114.687 157.307 114.867 157.1 114.985L154.894 116.256C154.687 116.375 154.376 116.388 154.197 116.285Z" fill="#06033E"/>
<path d="M157.635 118.265L155.409 116.983C155.23 116.88 155.252 116.7 155.459 116.581L157.665 115.311C157.871 115.192 158.184 115.179 158.362 115.282L160.589 116.564C160.768 116.667 160.745 116.847 160.539 116.966L158.333 118.237C158.127 118.356 157.814 118.368 157.635 118.265Z" fill="#06033E"/>
<path d="M161.075 120.246L158.848 118.963C158.669 118.861 158.692 118.681 158.898 118.562L161.105 117.291C161.311 117.172 161.623 117.159 161.802 117.262L164.029 118.545C164.208 118.648 164.185 118.828 163.978 118.947L161.772 120.217C161.565 120.336 161.253 120.349 161.075 120.246Z" fill="#06033E"/>
<path d="M113.904 104.646L107.345 100.869C107.167 100.766 107.189 100.586 107.396 100.467L109.602 99.1964C109.808 99.0775 110.121 99.0648 110.3 99.1677L116.858 102.945C117.036 103.048 117.014 103.228 116.808 103.347L114.601 104.617C114.394 104.736 114.082 104.749 113.904 104.646Z" fill="#06033E"/>
<path d="M156.15 128.978L149.592 125.201C149.413 125.098 149.436 124.918 149.642 124.799L151.849 123.528C152.055 123.41 152.368 123.397 152.546 123.5L159.104 127.277C159.283 127.38 159.261 127.56 159.054 127.679L156.847 128.949C156.641 129.068 156.329 129.081 156.15 128.978Z" fill="#06033E"/>
<path d="M142.398 125.432L140.171 124.149C139.992 124.046 140.015 123.866 140.221 123.748L142.85 122.234C143.056 122.115 143.369 122.102 143.547 122.205L145.774 123.487C145.952 123.59 145.93 123.77 145.724 123.889L143.095 125.403C142.889 125.522 142.577 125.535 142.398 125.432Z" fill="#06033E"/>
<path d="M117.425 111.049L113.864 108.998C113.685 108.895 113.708 108.715 113.914 108.596L116.542 107.082C116.749 106.964 117.061 106.951 117.24 107.054L120.801 109.105C120.98 109.208 120.957 109.388 120.751 109.506L118.122 111.02C117.916 111.139 117.604 111.152 117.425 111.049Z" fill="#06033E"/>
<path d="M139.085 123.524L135.524 121.473C135.345 121.37 135.367 121.19 135.574 121.071L138.202 119.557C138.409 119.439 138.721 119.426 138.9 119.529L142.461 121.58C142.639 121.683 142.617 121.863 142.411 121.982L139.782 123.495C139.576 123.614 139.263 123.627 139.085 123.524Z" fill="#06033E"/>
<path d="M122.386 113.907L118.825 111.856C118.647 111.753 118.669 111.573 118.876 111.454L121.504 109.94C121.711 109.821 122.023 109.808 122.201 109.911L125.763 111.962C125.942 112.065 125.919 112.245 125.712 112.364L123.084 113.878C122.877 113.996 122.565 114.01 122.386 113.907Z" fill="#06033E"/>
<path d="M122.225 109.925L137.709 118.843C137.901 118.953 137.901 119.133 137.709 119.243L135.028 120.787C134.836 120.898 134.525 120.898 134.332 120.787L118.849 111.869L122.225 109.925Z" fill="#06033E"/>
<path d="M152.009 129.023L154.489 130.452C154.636 130.536 154.618 130.683 154.448 130.781L153.373 131.4C153.204 131.498 152.948 131.508 152.801 131.424L150.321 129.995C150.174 129.911 150.193 129.763 150.362 129.666L151.437 129.047C151.606 128.949 151.862 128.939 152.009 129.023Z" fill="#06033E"/>
<path d="M148.541 127.026L151.022 128.454C151.168 128.539 151.15 128.686 150.981 128.784L149.906 129.403C149.736 129.5 149.481 129.511 149.334 129.427L146.854 127.998C146.707 127.914 146.726 127.766 146.895 127.669L147.97 127.049C148.139 126.952 148.395 126.941 148.541 127.026Z" fill="#06033E"/>
<path d="M145.103 125.045L147.583 126.474C147.73 126.558 147.711 126.706 147.542 126.803L146.467 127.423C146.298 127.52 146.042 127.531 145.895 127.446L143.415 126.018C143.268 125.933 143.286 125.786 143.456 125.688L144.531 125.069C144.7 124.972 144.956 124.961 145.103 125.045Z" fill="#06033E"/>
<path d="M150.441 125.932L152.921 127.361C153.067 127.445 153.049 127.593 152.88 127.69L151.804 128.309C151.635 128.407 151.379 128.417 151.232 128.333L148.752 126.905C148.605 126.82 148.624 126.673 148.793 126.575L149.868 125.956C150.038 125.859 150.294 125.848 150.441 125.932Z" fill="#06033E"/>
</g>
<g opacity="0.4">
<path d="M105.774 104.339L103.547 103.056C103.368 102.953 103.391 102.773 103.597 102.655L106.226 101.141C106.432 101.022 106.744 101.009 106.923 101.112L109.15 102.394C109.329 102.497 109.306 102.677 109.1 102.796L106.471 104.31C106.265 104.429 105.953 104.442 105.774 104.339Z" fill="#06033E"/>
<path d="M109.213 106.319L106.986 105.037C106.807 104.934 106.83 104.754 107.036 104.635L109.665 103.121C109.871 103.003 110.184 102.99 110.362 103.093L112.589 104.375C112.768 104.478 112.745 104.658 112.539 104.777L109.91 106.291C109.704 106.409 109.392 106.422 109.213 106.319Z" fill="#06033E"/>
<path d="M112.652 108.3L110.425 107.017C110.246 106.914 110.269 106.734 110.475 106.615L113.104 105.102C113.31 104.983 113.623 104.97 113.801 105.073L116.028 106.355C116.206 106.458 116.184 106.638 115.978 106.757L113.349 108.271C113.143 108.39 112.83 108.403 112.652 108.3Z" fill="#06033E"/>
<path d="M117.408 106.664L115.181 105.382C115.002 105.279 115.025 105.099 115.231 104.98L117.438 103.71C117.644 103.591 117.956 103.578 118.135 103.681L120.362 104.963C120.54 105.066 120.518 105.246 120.311 105.365L118.105 106.636C117.899 106.755 117.587 106.767 117.408 106.664Z" fill="#06033E"/>
<path d="M120.847 108.645L118.62 107.363C118.441 107.26 118.464 107.08 118.67 106.961L120.877 105.69C121.083 105.571 121.396 105.559 121.574 105.662L123.801 106.944C123.98 107.047 123.957 107.227 123.751 107.346L121.544 108.616C121.338 108.735 121.025 108.748 120.847 108.645Z" fill="#06033E"/>
<path d="M124.285 110.625L122.059 109.343C121.88 109.24 121.903 109.06 122.109 108.941L124.316 107.671C124.522 107.552 124.834 107.539 125.013 107.642L127.24 108.924C127.419 109.027 127.396 109.207 127.189 109.326L124.983 110.597C124.777 110.715 124.464 110.728 124.285 110.625Z" fill="#06033E"/>
<path d="M127.724 112.606L125.497 111.324C125.318 111.221 125.341 111.041 125.548 110.922L127.754 109.651C127.96 109.532 128.273 109.52 128.451 109.623L130.678 110.905C130.857 111.008 130.834 111.188 130.628 111.307L128.421 112.577C128.216 112.696 127.903 112.709 127.724 112.606Z" fill="#06033E"/>
<path d="M131.163 114.586L128.937 113.304C128.758 113.201 128.78 113.021 128.987 112.902L131.193 111.632C131.4 111.513 131.712 111.5 131.891 111.603L134.118 112.885C134.296 112.988 134.274 113.168 134.067 113.287L131.861 114.558C131.654 114.677 131.342 114.689 131.163 114.586Z" fill="#06033E"/>
<path d="M134.602 116.567L132.375 115.285C132.196 115.182 132.219 115.002 132.425 114.883L134.632 113.612C134.838 113.494 135.15 113.481 135.329 113.584L137.556 114.866C137.734 114.969 137.712 115.149 137.505 115.268L135.299 116.538C135.093 116.657 134.78 116.67 134.602 116.567Z" fill="#06033E"/>
<path d="M138.041 118.548L135.814 117.265C135.635 117.163 135.658 116.983 135.864 116.864L138.07 115.593C138.277 115.474 138.589 115.461 138.768 115.564L140.994 116.847C141.173 116.95 141.15 117.13 140.944 117.249L138.737 118.519C138.532 118.638 138.22 118.651 138.041 118.548Z" fill="#06033E"/>
<path d="M141.479 120.528L139.253 119.246C139.074 119.143 139.096 118.963 139.303 118.844L141.509 117.573C141.716 117.454 142.028 117.442 142.207 117.545L144.433 118.827C144.613 118.93 144.59 119.11 144.383 119.229L142.177 120.499C141.971 120.618 141.658 120.631 141.479 120.528Z" fill="#06033E"/>
<path d="M144.919 122.509L142.692 121.227C142.513 121.124 142.536 120.944 142.742 120.825L144.949 119.554C145.155 119.435 145.467 119.423 145.646 119.526L147.873 120.808C148.052 120.911 148.029 121.091 147.822 121.21L145.616 122.48C145.409 122.599 145.097 122.612 144.919 122.509Z" fill="#06033E"/>
<path d="M148.357 124.489L146.13 123.207C145.951 123.104 145.974 122.924 146.181 122.805L148.387 121.535C148.593 121.416 148.906 121.403 149.084 121.506L151.311 122.788C151.489 122.891 151.467 123.071 151.261 123.19L149.054 124.461C148.848 124.579 148.536 124.592 148.357 124.489Z" fill="#06033E"/>
<path d="M122.475 105.727L120.248 104.444C120.069 104.341 120.092 104.162 120.298 104.043L122.504 102.772C122.711 102.653 123.023 102.64 123.202 102.743L125.429 104.026C125.607 104.129 125.585 104.309 125.379 104.428L123.172 105.698C122.966 105.817 122.653 105.83 122.475 105.727Z" fill="#06033E"/>
<path d="M118.984 103.716L116.758 102.434C116.579 102.331 116.602 102.151 116.808 102.032L119.014 100.761C119.221 100.642 119.533 100.629 119.712 100.732L121.939 102.015C122.118 102.118 122.095 102.298 121.888 102.417L119.682 103.687C119.476 103.807 119.163 103.819 118.984 103.716Z" fill="#06033E"/>
<path d="M115.489 101.703L110.693 98.9408C110.514 98.8378 110.537 98.6579 110.743 98.539L112.949 97.2684C113.156 97.1495 113.468 97.1368 113.647 97.2397L118.442 100.002C118.621 100.105 118.599 100.285 118.392 100.404L116.186 101.674C115.98 101.793 115.668 101.806 115.489 101.703Z" fill="#06033E"/>
<path d="M117.932 99.2543L114.04 97.0125C113.861 96.9096 113.884 96.7296 114.09 96.6107L116.297 95.3397C116.503 95.2208 116.815 95.2081 116.994 95.311L120.886 97.5528C121.065 97.6558 121.042 97.8357 120.836 97.9546L118.63 99.2252C118.423 99.3445 118.111 99.3577 117.932 99.2543Z" fill="#06033E"/>
<path d="M125.913 107.707L123.687 106.425C123.508 106.322 123.53 106.142 123.737 106.023L125.943 104.752C126.149 104.633 126.462 104.62 126.64 104.723L128.867 106.006C129.046 106.108 129.023 106.288 128.817 106.407L126.611 107.678C126.405 107.797 126.092 107.81 125.913 107.707Z" fill="#06033E"/>
<path d="M129.352 109.688L127.125 108.405C126.947 108.302 126.969 108.122 127.176 108.004L129.382 106.733C129.588 106.614 129.901 106.601 130.079 106.704L132.306 107.986C132.485 108.089 132.462 108.269 132.256 108.388L130.049 109.659C129.843 109.778 129.531 109.791 129.352 109.688Z" fill="#06033E"/>
<path d="M132.791 111.668L130.565 110.386C130.386 110.283 130.408 110.103 130.615 109.984L132.821 108.713C133.028 108.594 133.34 108.582 133.519 108.685L135.745 109.967C135.924 110.07 135.902 110.25 135.695 110.369L133.489 111.639C133.282 111.758 132.97 111.771 132.791 111.668Z" fill="#06033E"/>
<path d="M136.23 113.649L134.003 112.367C133.824 112.264 133.847 112.084 134.054 111.965L136.26 110.694C136.467 110.575 136.779 110.563 136.957 110.666L139.184 111.948C139.363 112.051 139.34 112.231 139.134 112.35L136.928 113.62C136.721 113.739 136.409 113.752 136.23 113.649Z" fill="#06033E"/>
<path d="M139.669 115.63L137.442 114.347C137.263 114.244 137.286 114.064 137.492 113.945L139.698 112.675C139.905 112.556 140.217 112.543 140.396 112.646L142.622 113.929C142.801 114.032 142.778 114.212 142.572 114.33L140.365 115.601C140.16 115.719 139.848 115.733 139.669 115.63Z" fill="#06033E"/>
<path d="M143.107 117.61L140.881 116.327C140.702 116.225 140.725 116.045 140.931 115.926L143.138 114.655C143.344 114.536 143.656 114.523 143.835 114.626L146.062 115.909C146.241 116.012 146.218 116.192 146.011 116.311L143.805 117.581C143.599 117.7 143.286 117.713 143.107 117.61Z" fill="#06033E"/>
<path d="M146.546 119.591L144.32 118.308C144.141 118.205 144.164 118.025 144.37 117.906L146.577 116.636C146.783 116.517 147.095 116.504 147.274 116.607L149.501 117.89C149.68 117.993 149.657 118.172 149.45 118.291L147.244 119.562C147.037 119.68 146.725 119.694 146.546 119.591Z" fill="#06033E"/>
<path d="M149.985 121.571L147.758 120.289C147.579 120.186 147.602 120.006 147.809 119.887L150.015 118.616C150.222 118.497 150.534 118.485 150.713 118.588L152.939 119.87C153.118 119.973 153.095 120.153 152.889 120.272L150.683 121.542C150.476 121.661 150.164 121.674 149.985 121.571Z" fill="#06033E"/>
<path d="M153.424 123.552L151.197 122.269C151.019 122.166 151.041 121.986 151.247 121.868L153.454 120.597C153.66 120.478 153.972 120.465 154.151 120.568L156.378 121.851C156.557 121.954 156.534 122.134 156.328 122.253L154.122 123.523C153.915 123.642 153.603 123.655 153.424 123.552Z" fill="#06033E"/>
<path d="M159.537 127.073L154.679 124.274C154.5 124.171 154.523 123.991 154.729 123.872L156.936 122.601C157.142 122.483 157.454 122.47 157.633 122.573L162.492 125.371C162.671 125.474 162.648 125.654 162.441 125.773L160.235 127.044C160.029 127.163 159.716 127.176 159.537 127.073Z" fill="#06033E"/>
<path d="M166.233 123.217L162.132 120.855C161.953 120.752 161.976 120.572 162.182 120.453L164.389 119.182C164.595 119.064 164.907 119.051 165.086 119.154L169.187 121.516C169.365 121.619 169.343 121.799 169.137 121.918L166.93 123.188C166.723 123.307 166.411 123.32 166.233 123.217Z" fill="#06033E"/>
<path d="M131.936 107.32L129.709 106.037C129.53 105.935 129.553 105.755 129.759 105.636L131.965 104.365C132.172 104.246 132.484 104.233 132.663 104.336L134.89 105.619C135.069 105.722 135.046 105.902 134.839 106.021L132.633 107.291C132.427 107.41 132.115 107.423 131.936 107.32Z" fill="#06033E"/>
<path d="M128.411 105.29L126.185 104.007C126.006 103.904 126.028 103.725 126.235 103.606L128.442 102.335C128.648 102.216 128.96 102.203 129.139 102.306L131.366 103.589C131.545 103.692 131.522 103.872 131.315 103.991L129.109 105.261C128.902 105.38 128.59 105.393 128.411 105.29Z" fill="#06033E"/>
<path d="M124.887 103.26L122.66 101.977C122.481 101.874 122.504 101.695 122.71 101.576L124.917 100.305C125.123 100.186 125.436 100.173 125.614 100.276L127.841 101.559C128.02 101.662 127.997 101.842 127.791 101.961L125.585 103.231C125.378 103.35 125.066 103.363 124.887 103.26Z" fill="#06033E"/>
<path d="M121.363 101.23L119.136 99.9476C118.957 99.8447 118.98 99.6647 119.186 99.5458L121.392 98.2753C121.599 98.1564 121.911 98.1436 122.09 98.2466L124.316 99.529C124.495 99.6319 124.473 99.8119 124.266 99.9308L122.059 101.201C121.854 101.32 121.541 101.333 121.363 101.23Z" fill="#06033E"/>
<path d="M135.375 109.3L133.148 108.018C132.969 107.915 132.992 107.735 133.198 107.616L135.405 106.345C135.611 106.226 135.923 106.213 136.102 106.316L138.329 107.599C138.508 107.701 138.485 107.881 138.278 108L136.072 109.271C135.865 109.39 135.553 109.403 135.375 109.3Z" fill="#06033E"/>
<path d="M138.813 111.281L136.587 109.998C136.408 109.895 136.43 109.716 136.637 109.597L138.843 108.326C139.049 108.207 139.362 108.194 139.54 108.297L141.767 109.58C141.946 109.683 141.923 109.863 141.717 109.982L139.51 111.253C139.304 111.371 138.992 111.384 138.813 111.281Z" fill="#06033E"/>
<path d="M142.252 113.261L140.025 111.979C139.846 111.876 139.869 111.696 140.075 111.577L142.282 110.306C142.488 110.187 142.8 110.174 142.979 110.277L145.206 111.56C145.385 111.663 145.362 111.843 145.156 111.962L142.95 113.232C142.743 113.351 142.431 113.364 142.252 113.261Z" fill="#06033E"/>
<path d="M145.691 115.242L143.464 113.96C143.285 113.857 143.308 113.677 143.514 113.558L145.72 112.287C145.927 112.168 146.239 112.155 146.418 112.258L148.644 113.54C148.823 113.643 148.801 113.823 148.594 113.942L146.388 115.213C146.182 115.332 145.87 115.345 145.691 115.242Z" fill="#06033E"/>
<path d="M149.13 117.223L146.903 115.94C146.724 115.837 146.747 115.657 146.953 115.538L149.16 114.268C149.366 114.149 149.678 114.136 149.857 114.239L152.084 115.522C152.263 115.625 152.24 115.805 152.033 115.923L149.827 117.194C149.621 117.312 149.308 117.326 149.13 117.223Z" fill="#06033E"/>
<path d="M152.569 119.203L150.342 117.92C150.163 117.818 150.186 117.638 150.392 117.519L152.599 116.248C152.805 116.129 153.118 116.116 153.296 116.219L155.523 117.501C155.702 117.604 155.679 117.784 155.473 117.903L153.266 119.174C153.06 119.293 152.747 119.306 152.569 119.203Z" fill="#06033E"/>
<path d="M156.007 121.184L153.781 119.901C153.602 119.798 153.625 119.618 153.831 119.499L156.038 118.229C156.244 118.11 156.556 118.097 156.735 118.2L158.962 119.483C159.14 119.586 159.118 119.765 158.911 119.884L156.705 121.155C156.499 121.274 156.186 121.287 156.007 121.184Z" fill="#06033E"/>
<path d="M159.446 123.164L157.22 121.882C157.041 121.779 157.063 121.599 157.27 121.48L159.477 120.209C159.683 120.09 159.995 120.078 160.174 120.181L162.401 121.463C162.579 121.566 162.557 121.746 162.35 121.865L160.144 123.135C159.937 123.254 159.625 123.267 159.446 123.164Z" fill="#06033E"/>
<path d="M162.885 125.145L160.658 123.862C160.479 123.759 160.502 123.58 160.709 123.461L162.915 122.19C163.121 122.071 163.433 122.058 163.612 122.161L165.839 123.444C166.018 123.547 165.995 123.727 165.789 123.846L163.582 125.117C163.376 125.235 163.064 125.248 162.885 125.145Z" fill="#06033E"/>
<path d="M130.125 102.421L127.898 101.138C127.719 101.035 127.742 100.855 127.948 100.736L130.154 99.4659C130.361 99.347 130.673 99.3343 130.852 99.4372L133.079 100.72C133.258 100.823 133.235 101.003 133.029 101.121L130.823 102.392C130.616 102.511 130.304 102.524 130.125 102.421Z" fill="#06033E"/>
<path d="M126.703 100.45L124.476 99.1676C124.298 99.0646 124.32 98.8847 124.526 98.7658L126.733 97.4948C126.939 97.3759 127.251 97.3631 127.43 97.4661L129.657 98.7484C129.836 98.8514 129.813 99.0313 129.607 99.1502L127.401 100.421C127.194 100.54 126.882 100.553 126.703 100.45Z" fill="#06033E"/>
<path d="M123.282 98.4792L121.055 97.1969C120.876 97.0939 120.899 96.914 121.105 96.7951L123.311 95.524C123.518 95.4051 123.83 95.3924 124.009 95.4954L126.235 96.7777C126.414 96.8807 126.391 97.0606 126.185 97.1795L123.979 98.4505C123.772 98.5694 123.46 98.5822 123.282 98.4792Z" fill="#06033E"/>
<path d="M119.86 96.5086L117.633 95.2262C117.455 95.1232 117.477 94.9433 117.683 94.8244L119.89 93.5538C120.096 93.4349 120.408 93.4222 120.587 93.5251L122.814 94.8075C122.993 94.9105 122.97 95.0904 122.763 95.2093L120.557 96.4799C120.351 96.5988 120.038 96.6115 119.86 96.5086Z" fill="#06033E"/>
<path d="M123.378 94.4823L121.152 93.1999C120.973 93.0969 120.996 92.917 121.202 92.7981L121.931 92.3781C122.138 92.2592 122.45 92.2464 122.629 92.3494L124.855 93.6317C125.034 93.7347 125.011 93.9146 124.805 94.0335L124.076 94.4536C123.869 94.572 123.557 94.5852 123.378 94.4823Z" fill="#06033E"/>
<path d="M127.844 97.0538L125.617 95.7714C125.439 95.6685 125.461 95.4885 125.667 95.3696L126.397 94.9496C126.603 94.8307 126.915 94.8179 127.094 94.9209L129.321 96.2033C129.5 96.3062 129.477 96.4862 129.27 96.6051L128.541 97.0251C128.335 97.144 128.022 97.1568 127.844 97.0538Z" fill="#06033E"/>
<path d="M131.251 99.0164L129.024 97.7341C128.845 97.6311 128.868 97.4512 129.075 97.3323L129.804 96.9122C130.01 96.7933 130.323 96.7806 130.502 96.8835L132.728 98.1659C132.907 98.2689 132.884 98.4488 132.678 98.5677L131.949 98.9877C131.742 99.1066 131.43 99.1194 131.251 99.0164Z" fill="#06033E"/>
<path d="M134.659 100.979L132.432 99.6965C132.253 99.5935 132.276 99.4136 132.482 99.2947L133.211 98.8746C133.418 98.7557 133.73 98.743 133.909 98.8459L136.135 100.128C136.314 100.231 136.292 100.411 136.085 100.53L135.356 100.95C135.149 101.069 134.837 101.082 134.659 100.979Z" fill="#06033E"/>
<path d="M138.066 102.941L135.839 101.659C135.66 101.556 135.683 101.376 135.889 101.257L136.619 100.837C136.825 100.718 137.137 100.706 137.316 100.809L139.543 102.091C139.722 102.194 139.699 102.374 139.492 102.493L138.763 102.913C138.557 103.032 138.245 103.044 138.066 102.941Z" fill="#06033E"/>
<path d="M157.089 113.898L154.862 112.616C154.684 112.513 154.706 112.333 154.913 112.214L155.642 111.794C155.848 111.675 156.161 111.662 156.339 111.765L158.566 113.048C158.745 113.15 158.722 113.33 158.516 113.449L157.787 113.869C157.581 113.988 157.268 114.001 157.089 113.898Z" fill="#06033E"/>
<path d="M160.497 115.86L158.27 114.578C158.091 114.475 158.114 114.295 158.32 114.176L159.05 113.756C159.256 113.637 159.568 113.624 159.747 113.727L161.974 115.01C162.153 115.113 162.13 115.293 161.924 115.411L161.195 115.831C160.988 115.95 160.675 115.964 160.497 115.86Z" fill="#06033E"/>
<path d="M163.904 117.823L161.678 116.54C161.499 116.437 161.521 116.257 161.728 116.138L162.457 115.718C162.664 115.599 162.976 115.587 163.154 115.69L165.381 116.972C165.56 117.075 165.537 117.255 165.331 117.374L164.602 117.794C164.395 117.913 164.083 117.926 163.904 117.823Z" fill="#06033E"/>
<path d="M167.312 119.785L165.085 118.503C164.906 118.4 164.929 118.22 165.135 118.101L165.864 117.681C166.071 117.562 166.383 117.549 166.562 117.652L168.788 118.935C168.967 119.038 168.945 119.218 168.738 119.337L168.009 119.757C167.802 119.875 167.491 119.888 167.312 119.785Z" fill="#06033E"/>
<path d="M133.564 104.402L131.337 103.119C131.158 103.016 131.181 102.836 131.387 102.717L133.593 101.447C133.8 101.328 134.112 101.315 134.291 101.418L136.517 102.701C136.696 102.804 136.673 102.983 136.467 103.102L134.261 104.373C134.055 104.491 133.743 104.505 133.564 104.402Z" fill="#06033E"/>
<path d="M137.003 106.382L134.776 105.099C134.597 104.997 134.62 104.817 134.826 104.698L137.032 103.427C137.239 103.308 137.551 103.295 137.73 103.398L139.956 104.681C140.135 104.784 140.113 104.964 139.906 105.083L137.7 106.353C137.494 106.472 137.181 106.485 137.003 106.382Z" fill="#06033E"/>
<path d="M140.441 108.363L138.215 107.08C138.036 106.977 138.059 106.797 138.265 106.678L140.471 105.408C140.678 105.289 140.99 105.276 141.168 105.379L143.395 106.662C143.574 106.764 143.551 106.944 143.345 107.063L141.138 108.334C140.932 108.453 140.62 108.466 140.441 108.363Z" fill="#06033E"/>
<path d="M143.88 110.343L141.653 109.061C141.474 108.958 141.497 108.778 141.704 108.659L143.91 107.389C144.117 107.27 144.429 107.257 144.608 107.36L146.834 108.642C147.013 108.745 146.99 108.925 146.784 109.044L144.578 110.315C144.372 110.433 144.059 110.446 143.88 110.343Z" fill="#06033E"/>
<path d="M147.319 112.324L145.092 111.041C144.914 110.938 144.936 110.758 145.143 110.64L147.349 109.369C147.556 109.25 147.868 109.237 148.047 109.34L150.273 110.623C150.452 110.726 150.43 110.906 150.223 111.025L148.017 112.296C147.81 112.414 147.498 112.427 147.319 112.324Z" fill="#06033E"/>
<path d="M150.758 114.304L148.531 113.022C148.352 112.919 148.375 112.739 148.581 112.62L150.788 111.35C150.994 111.231 151.307 111.218 151.485 111.321L153.712 112.603C153.891 112.706 153.868 112.886 153.662 113.005L151.455 114.276C151.249 114.394 150.936 114.407 150.758 114.304Z" fill="#06033E"/>
<path d="M154.197 116.285L151.97 115.002C151.791 114.899 151.814 114.719 152.02 114.6L154.227 113.33C154.433 113.211 154.745 113.198 154.924 113.301L157.151 114.584C157.33 114.687 157.307 114.867 157.1 114.985L154.894 116.256C154.687 116.375 154.376 116.388 154.197 116.285Z" fill="#06033E"/>
<path d="M157.635 118.265L155.409 116.983C155.23 116.88 155.252 116.7 155.459 116.581L157.665 115.311C157.871 115.192 158.184 115.179 158.362 115.282L160.589 116.564C160.768 116.667 160.745 116.847 160.539 116.966L158.333 118.237C158.127 118.356 157.814 118.368 157.635 118.265Z" fill="#06033E"/>
<path d="M161.075 120.246L158.848 118.963C158.669 118.861 158.692 118.681 158.898 118.562L161.105 117.291C161.311 117.172 161.623 117.159 161.802 117.262L164.029 118.545C164.208 118.648 164.185 118.828 163.978 118.947L161.772 120.217C161.565 120.336 161.253 120.349 161.075 120.246Z" fill="#06033E"/>
<path d="M113.904 104.646L107.345 100.869C107.167 100.766 107.189 100.586 107.396 100.467L109.602 99.1964C109.808 99.0775 110.121 99.0648 110.3 99.1677L116.858 102.945C117.036 103.048 117.014 103.228 116.808 103.347L114.601 104.617C114.394 104.736 114.082 104.749 113.904 104.646Z" fill="#06033E"/>
<path d="M156.15 128.978L149.592 125.201C149.413 125.098 149.436 124.918 149.642 124.799L151.849 123.528C152.055 123.41 152.368 123.397 152.546 123.5L159.104 127.277C159.283 127.38 159.261 127.56 159.054 127.679L156.847 128.949C156.641 129.068 156.329 129.081 156.15 128.978Z" fill="#06033E"/>
<path d="M142.398 125.432L140.171 124.149C139.992 124.046 140.015 123.866 140.221 123.748L142.85 122.234C143.056 122.115 143.369 122.102 143.547 122.205L145.774 123.487C145.952 123.59 145.93 123.77 145.724 123.889L143.095 125.403C142.889 125.522 142.577 125.535 142.398 125.432Z" fill="#06033E"/>
<path d="M117.425 111.049L113.864 108.998C113.685 108.895 113.708 108.715 113.914 108.596L116.542 107.082C116.749 106.964 117.061 106.951 117.24 107.054L120.801 109.105C120.98 109.208 120.957 109.388 120.751 109.506L118.122 111.02C117.916 111.139 117.604 111.152 117.425 111.049Z" fill="#06033E"/>
<path d="M139.085 123.524L135.524 121.473C135.345 121.37 135.367 121.19 135.574 121.071L138.202 119.557C138.409 119.439 138.721 119.426 138.9 119.529L142.461 121.58C142.639 121.683 142.617 121.863 142.411 121.982L139.782 123.495C139.576 123.614 139.263 123.627 139.085 123.524Z" fill="#06033E"/>
<path d="M122.386 113.907L118.825 111.856C118.647 111.753 118.669 111.573 118.876 111.454L121.504 109.94C121.711 109.821 122.023 109.808 122.201 109.911L125.763 111.962C125.942 112.065 125.919 112.245 125.712 112.364L123.084 113.878C122.877 113.996 122.565 114.01 122.386 113.907Z" fill="#06033E"/>
<path d="M122.225 109.925L137.709 118.843C137.901 118.953 137.901 119.133 137.709 119.243L135.028 120.787C134.836 120.898 134.525 120.898 134.332 120.787L118.849 111.869L122.225 109.925Z" fill="#06033E"/>
<path d="M152.009 129.023L154.489 130.452C154.636 130.536 154.618 130.683 154.448 130.781L153.373 131.4C153.204 131.498 152.948 131.508 152.801 131.424L150.321 129.995C150.174 129.911 150.193 129.763 150.362 129.666L151.437 129.047C151.606 128.949 151.862 128.939 152.009 129.023Z" fill="#06033E"/>
<path d="M148.541 127.026L151.022 128.454C151.168 128.539 151.15 128.686 150.981 128.784L149.906 129.403C149.736 129.5 149.481 129.511 149.334 129.427L146.854 127.998C146.707 127.914 146.726 127.766 146.895 127.669L147.97 127.049C148.139 126.952 148.395 126.941 148.541 127.026Z" fill="#06033E"/>
<path d="M145.103 125.045L147.583 126.474C147.73 126.558 147.711 126.706 147.542 126.803L146.467 127.423C146.298 127.52 146.042 127.531 145.895 127.446L143.415 126.018C143.268 125.933 143.286 125.786 143.456 125.688L144.531 125.069C144.7 124.972 144.956 124.961 145.103 125.045Z" fill="#06033E"/>
<path d="M150.441 125.932L152.921 127.361C153.067 127.445 153.049 127.593 152.88 127.69L151.804 128.309C151.635 128.407 151.379 128.417 151.232 128.333L148.752 126.905C148.605 126.82 148.624 126.673 148.793 126.575L149.868 125.956C150.038 125.859 150.294 125.848 150.441 125.932Z" fill="#06033E"/>
</g>
<path d="M186.835 121.925L121.138 84.0872C120.105 83.4923 119.565 82.0422 119.933 80.8491L134.791 32.7284C135.159 31.5353 136.294 31.0501 137.327 31.645L203.024 69.483C204.057 70.078 204.597 71.5276 204.229 72.7211L189.371 120.842C189.004 122.035 187.868 122.52 186.835 121.925Z" fill="url(#paint7_radial_637_55)"/>
<path d="M186.215 120.24L122.493 83.5092C121.504 82.9397 120.988 81.5525 121.34 80.4105L135.545 34.4071C135.897 33.265 136.984 32.8008 137.972 33.3703L201.695 70.1012C202.683 70.6707 203.199 72.0579 202.847 73.1999L188.643 119.203C188.291 120.345 187.204 120.81 186.215 120.24Z" fill="url(#paint8_linear_637_55)"/>
<path opacity="0.4" d="M186.215 120.24L122.493 83.5092C121.504 82.9397 120.988 81.5525 121.34 80.4105L135.545 34.4071C135.897 33.265 136.984 32.8008 137.972 33.3703L201.695 70.1012C202.683 70.6707 203.199 72.0579 202.847 73.1999L188.643 119.203C188.291 120.345 187.204 120.81 186.215 120.24Z" fill="#06033E"/>
<path opacity="0.4" d="M186.215 120.24L122.493 83.5092C121.504 82.9397 120.988 81.5525 121.34 80.4105L135.545 34.4071C135.897 33.265 136.984 32.8008 137.972 33.3703L201.695 70.1012C202.683 70.6707 203.199 72.0579 202.847 73.1999L188.643 119.203C188.291 120.345 187.204 120.81 186.215 120.24Z" fill="#06033E"/>
<path opacity="0.5" d="M182.792 106.182L139.655 81.3377C138.977 80.9468 138.622 79.9951 138.864 79.2116L148.619 47.6152C148.861 46.8316 149.607 46.5132 150.285 46.9036L193.422 71.7478C194.1 72.1386 194.454 73.0903 194.213 73.8738L184.458 105.47C184.216 106.254 183.47 106.572 182.792 106.182Z" fill="#06033E"/>
<path d="M176.963 106.944L133.827 82.1001C133.148 81.7092 132.794 80.7576 133.036 79.974L142.791 48.3776C143.032 47.5941 143.778 47.2756 144.456 47.666L187.593 72.5107C188.271 72.9015 188.625 73.8532 188.384 74.6367L178.628 106.233C178.388 107.017 177.642 107.335 176.963 106.944Z" fill="url(#paint9_radial_637_55)"/>
<g opacity="0.5">
<path d="M176.963 106.944L133.827 82.1001C133.148 81.7092 132.794 80.7576 133.036 79.974L142.791 48.3776C143.032 47.5941 143.778 47.2756 144.456 47.666L187.593 72.5107C188.271 72.9015 188.625 73.8532 188.384 74.6367L178.628 106.233C178.388 107.017 177.642 107.335 176.963 106.944Z" fill="#06033E"/>
</g>
<path d="M187.593 72.5107L144.457 47.666C144.032 47.4214 143.58 47.4551 143.243 47.707C143.446 47.7011 143.658 47.7471 143.866 47.866L187.003 72.7102C187.681 73.1006 188.035 74.0527 187.793 74.8363L178.038 106.433C177.947 106.725 177.787 106.952 177.586 107.103C178.048 107.089 178.461 106.777 178.629 106.232L188.384 74.6358C188.626 73.8532 188.272 72.9011 187.593 72.5107Z" fill="white"/>
<path opacity="0.4" d="M122.558 132.746C121.963 132.746 121.394 132.623 120.959 132.373V132.373L103.676 122.419C103.218 122.155 102.966 121.778 102.966 121.357C102.966 120.868 103.314 120.388 103.919 120.039L112.815 114.915C113.903 114.289 115.498 114.228 116.449 114.775L133.731 124.729C134.19 124.993 134.442 125.37 134.442 125.791C134.442 126.279 134.095 126.76 133.489 127.109L124.592 132.233C124.003 132.573 123.263 132.746 122.558 132.746ZM114.859 114.906C114.235 114.906 113.571 115.056 113.065 115.347L104.17 120.47C103.722 120.728 103.465 121.051 103.465 121.357C103.465 121.659 103.716 121.867 103.927 121.988L121.21 131.942C121.994 132.392 123.428 132.329 124.343 131.801L133.24 126.678C133.687 126.42 133.943 126.097 133.943 125.791C133.943 125.489 133.693 125.281 133.482 125.16L116.2 115.206C115.849 115.004 115.367 114.906 114.859 114.906Z" fill="#06033E"/>
<path d="M154.945 62.9744L152.278 61.4383C152.031 61.2957 151.898 60.9531 151.982 60.6734C152.065 60.3932 152.334 60.2821 152.581 60.4247L155.248 61.9608C155.496 62.1034 155.628 62.446 155.545 62.7257C155.461 63.0054 155.192 63.1165 154.945 62.9744Z" fill="white"/>
<path d="M161.297 66.633L157.365 64.368C157.118 64.2254 156.985 63.8828 157.069 63.6031C157.152 63.3229 157.421 63.2118 157.668 63.3544L161.601 65.6189C161.848 65.7615 161.981 66.1041 161.897 66.3838C161.814 66.664 161.545 66.7756 161.297 66.633Z" fill="white"/>
<path d="M149.566 74.8183L146.9 73.2822C146.652 73.1396 146.52 72.797 146.603 72.5173C146.687 72.2371 146.955 72.126 147.203 72.2681L149.87 73.8043C150.117 73.9468 150.25 74.2894 150.166 74.5691C150.083 74.8493 149.814 74.9609 149.566 74.8183Z" fill="white"/>
<path d="M155.229 78.08L151.297 75.8155C151.049 75.6729 150.917 75.3303 151 75.0506C151.084 74.7704 151.352 74.6593 151.6 74.8019L155.532 77.0669C155.78 77.2095 155.912 77.5521 155.829 77.8318C155.745 78.111 155.477 78.2222 155.229 78.08Z" fill="white"/>
<path d="M146.956 60.8633L145.29 59.9039C145.043 59.7613 144.91 59.4187 144.994 59.139C145.078 58.8588 145.346 58.7477 145.594 58.8902L147.26 59.8496C147.507 59.9922 147.639 60.3348 147.556 60.6145C147.472 60.8942 147.204 61.0058 146.956 60.8633Z" fill="white"/>
<path d="M151.969 66.2406L146.879 63.3091C146.632 63.1665 146.499 62.824 146.583 62.5443C146.666 62.2641 146.935 62.1529 147.182 62.2955L152.272 65.227C152.52 65.3696 152.652 65.7122 152.569 65.9919C152.485 66.2721 152.217 66.3832 151.969 66.2406Z" fill="white"/>
<path d="M147.274 68.5176L145.609 67.5582C145.361 67.4156 145.229 67.073 145.312 66.7933C145.396 66.5131 145.664 66.402 145.912 66.5445L147.578 67.5039C147.825 67.6465 147.958 67.9891 147.874 68.2688C147.79 68.5485 147.521 68.6601 147.274 68.5176Z" fill="white"/>
<path d="M155.843 83.4141L151.394 80.8511C151.146 80.7085 151.014 80.366 151.097 80.0862C151.181 79.8061 151.449 79.6949 151.697 79.8375L156.147 82.4005C156.394 82.5431 156.527 82.8856 156.443 83.1653C156.359 83.4451 156.091 83.5567 155.843 83.4141Z" fill="white"/>
<path d="M145.407 72.4231L144.338 71.8072C144.09 71.6646 143.958 71.322 144.041 71.0423C144.125 70.7621 144.393 70.651 144.641 70.7936L145.711 71.4095C145.958 71.5521 146.09 71.8946 146.007 72.1744C145.923 72.4541 145.655 72.5652 145.407 72.4231Z" fill="white"/>
<path d="M144.395 76.8203L143.067 76.0555C142.82 75.9129 142.687 75.5703 142.771 75.2906C142.854 75.0104 143.123 74.8993 143.37 75.0419L144.698 75.8067C144.946 75.9493 145.078 76.2919 144.995 76.5716C144.911 76.8513 144.643 76.9629 144.395 76.8203Z" fill="white"/>
<path d="M149.561 79.7961L146.06 77.7798C145.813 77.6372 145.68 77.2947 145.764 77.015C145.847 76.7348 146.116 76.6236 146.363 76.7662L149.865 78.7825C150.112 78.9251 150.245 79.2677 150.161 79.5474C150.077 79.8271 149.809 79.9387 149.561 79.7961Z" fill="white"/>
<path d="M144.949 79.6298L142.432 78.1797C142.184 78.0371 142.052 77.6946 142.136 77.4149C142.219 77.1347 142.488 77.0235 142.735 77.1661L145.253 78.6162C145.5 78.7587 145.633 79.1013 145.549 79.381C145.465 79.6607 145.197 79.7724 144.949 79.6298Z" fill="white"/>
<path d="M159.661 85.6236L158.044 84.6924C157.797 84.5498 157.664 84.2073 157.748 83.9276C157.831 83.6474 158.1 83.5362 158.347 83.6788L159.964 84.61C160.211 84.7526 160.344 85.0951 160.26 85.3749C160.177 85.6546 159.908 85.7657 159.661 85.6236Z" fill="white"/>
<path d="M153.471 72.0867L149.022 69.5237C148.774 69.3811 148.642 69.0386 148.725 68.7589C148.809 68.4787 149.077 68.3675 149.325 68.5101L153.775 71.0731C154.022 71.2157 154.155 71.5582 154.071 71.8379C153.987 72.1177 153.719 72.2293 153.471 72.0867Z" fill="white"/>
<path d="M153.999 69.9001L146.244 65.4334C145.996 65.2908 145.864 64.9482 145.947 64.6685C146.031 64.3884 146.299 64.2772 146.547 64.4198L154.302 68.8865C154.55 69.0291 154.682 69.3717 154.598 69.6514C154.515 69.9311 154.246 70.0427 153.999 69.9001Z" fill="#E8975B"/>
<path d="M149.423 72.2454L144.973 69.6824C144.726 69.5398 144.593 69.1973 144.677 68.9175C144.76 68.6374 145.029 68.5262 145.276 68.6688L149.726 71.2318C149.974 71.3744 150.106 71.7169 150.022 71.9966C149.939 72.2764 149.67 72.388 149.423 72.2454Z" fill="#E8975B"/>
<path d="M156.846 74.0306L155.23 73.0994C154.982 72.9568 154.85 72.6142 154.933 72.3345C155.017 72.0544 155.285 71.9432 155.533 72.0858L157.149 73.017C157.397 73.1595 157.529 73.5021 157.446 73.7818C157.362 74.0615 157.094 74.1732 156.846 74.0306Z" fill="#E8975B"/>
<path d="M173.291 73.5409L163.717 68.0269C163.47 67.8843 163.337 67.5417 163.421 67.262C163.504 66.9819 163.773 66.8707 164.02 67.0133L173.594 72.5273C173.842 72.6699 173.974 73.0125 173.891 73.2922C173.807 73.5719 173.539 73.6831 173.291 73.5409Z" fill="#E8975B"/>
<path d="M149.051 77.0118L143.703 73.9314C143.455 73.7888 143.323 73.4462 143.406 73.1665C143.49 72.8863 143.758 72.7752 144.006 72.9173L149.355 75.9978C149.602 76.1404 149.735 76.4829 149.651 76.7626C149.567 77.0428 149.299 77.1544 149.051 77.0118Z" fill="#F8359E"/>
<path d="M149.858 60.0441L145.926 57.7791C145.678 57.6365 145.546 57.2939 145.629 57.0142C145.713 56.7341 145.981 56.6229 146.229 56.7655L150.161 59.0305C150.409 59.1731 150.541 59.5157 150.458 59.7954C150.374 60.0751 150.106 60.1867 149.858 60.0441Z" fill="#F8359E"/>
<path d="M144.127 81.6465L139.572 79.0234C139.325 78.8808 139.192 78.5382 139.276 78.2585C139.36 77.9784 139.628 77.8672 139.876 78.0093L144.43 80.6324C144.677 80.775 144.81 81.1176 144.726 81.3973C144.643 81.6775 144.374 81.7891 144.127 81.6465Z" fill="#E8975B"/>
<path opacity="0.6" d="M89.2972 90.9971C85.7946 93.0143 80.1154 93.0143 76.6128 90.9971C73.1102 88.9799 73.1102 85.7091 76.6128 83.6919C80.1154 81.6747 85.7946 81.6747 89.2972 83.6919C92.7998 85.7091 92.7998 88.9795 89.2972 90.9971Z" fill="#020230"/>
<path d="M174.366 68.6291L172.417 67.5061C172.236 67.4018 172.139 67.1517 172.201 66.9472C172.262 66.7426 172.458 66.6611 172.639 66.7654L174.588 67.8879C174.769 67.9922 174.866 68.2423 174.805 68.4473C174.743 68.6514 174.547 68.7329 174.366 68.6291Z" fill="white"/>
<path d="M178.084 70.7707L176.135 69.6477C175.954 69.5434 175.857 69.2933 175.918 69.0888C175.979 68.8842 176.176 68.8027 176.357 68.907L178.306 70.0295C178.487 70.1338 178.583 70.3839 178.522 70.5884C178.461 70.793 178.265 70.8745 178.084 70.7707Z" fill="white"/>
<path d="M181.803 72.9118L179.853 71.7893C179.673 71.685 179.576 71.4349 179.637 71.2303C179.698 71.0258 179.895 70.9443 180.075 71.0486L182.024 72.1711C182.205 72.2754 182.303 72.5255 182.241 72.73C182.18 72.9346 181.983 73.0161 181.803 72.9118Z" fill="white"/>
<path d="M183.63 73.966L183.572 73.9309C183.391 73.8266 183.294 73.5765 183.355 73.372C183.416 73.1674 183.613 73.0859 183.794 73.1902L183.852 73.2253C184.033 73.3296 184.13 73.5797 184.069 73.7842C184.007 73.9888 183.811 74.0703 183.63 73.966Z" fill="#F8359E"/>
<path d="M83.0205 97.2004C81.7871 97.2004 80.5532 96.8838 79.4531 96.2497L66.3947 88.7285C65.8284 88.4023 65.4905 87.8187 65.4905 87.1664C65.4905 86.514 65.8284 85.9304 66.3947 85.6043L79.4526 78.0835C81.6528 76.8161 84.3883 76.8157 86.5885 78.0835L99.6469 85.6047C100.213 85.9309 100.551 86.5145 100.551 87.1668C100.551 87.8192 100.213 88.4027 99.6469 88.7289L86.5889 96.2497C85.4888 96.8838 84.2545 97.2004 83.0205 97.2004ZM79.8778 95.5158C81.8168 96.6319 84.2252 96.6319 86.1647 95.5158L99.2226 87.995C99.5222 87.8219 99.7017 87.5126 99.7017 87.1673C99.7017 86.822 99.5222 86.5122 99.2226 86.3395L86.1642 78.8183C84.2243 77.7013 81.8159 77.7022 79.8773 78.8183L66.8194 86.3391C66.5198 86.5122 66.3403 86.8215 66.3403 87.1668C66.3403 87.5126 66.5198 87.8219 66.8194 87.9946L79.8778 95.5158Z" fill="url(#paint10_linear_637_55)"/>
</g>
<defs>
<linearGradient id="paint0_linear_637_55" x1="219.684" y1="139.817" x2="234.576" y2="139.817" gradientUnits="userSpaceOnUse">
<stop stop-color="#E39A65"/>
<stop offset="1" stop-color="#E95F8D"/>
</linearGradient>
<linearGradient id="paint1_linear_637_55" x1="199.293" y1="119.457" x2="224.308" y2="119.457" gradientUnits="userSpaceOnUse">
<stop stop-color="#E39A65"/>
<stop offset="1" stop-color="#E95F8D"/>
</linearGradient>
<linearGradient id="paint2_linear_637_55" x1="34.3345" y1="128.296" x2="59.3499" y2="128.296" gradientUnits="userSpaceOnUse">
<stop stop-color="#E39A65"/>
<stop offset="1" stop-color="#E95F8D"/>
</linearGradient>
<linearGradient id="paint3_linear_637_55" x1="63.4767" y1="127.486" x2="196.987" y2="127.486" gradientUnits="userSpaceOnUse">
<stop stop-color="#E39A65"/>
<stop offset="1" stop-color="#E95F8D"/>
</linearGradient>
<radialGradient id="paint4_radial_637_55" cx="0" cy="0" r="1" gradientUnits="userSpaceOnUse" gradientTransform="translate(137.222 28.8786) scale(101.972 101.724)">
<stop stop-color="#E39A65"/>
<stop offset="0.4742" stop-color="#A92FFB"/>
<stop offset="0.5947" stop-color="#891CFB"/>
<stop offset="0.7421" stop-color="#6507FA"/>
<stop offset="0.8016" stop-color="#0D0C6F"/>
</radialGradient>
<radialGradient id="paint5_radial_637_55" cx="0" cy="0" r="1" gradientUnits="userSpaceOnUse" gradientTransform="translate(74.8541 110.57) scale(111.505 111.234)">
<stop stop-color="#E39A65"/>
<stop offset="0.4742" stop-color="#A92FFB"/>
<stop offset="0.5679" stop-color="#891CFB"/>
<stop offset="0.6825" stop-color="#6507FA"/>
<stop offset="0.7381" stop-color="#0D0C6F"/>
</radialGradient>
<radialGradient id="paint6_radial_637_55" cx="0" cy="0" r="1" gradientUnits="userSpaceOnUse" gradientTransform="translate(85.1096 88.2436) scale(99.9917 99.7484)">
<stop stop-color="#E39A65"/>
<stop offset="0.4742" stop-color="#A92FFB"/>
<stop offset="0.5875" stop-color="#891CFB"/>
<stop offset="0.7262" stop-color="#6507FA"/>
<stop offset="1" stop-color="#3919BB"/>
</radialGradient>
<radialGradient id="paint7_radial_637_55" cx="0" cy="0" r="1" gradientUnits="userSpaceOnUse" gradientTransform="translate(110.019 50.0972) scale(101.992 101.744)">
<stop stop-color="#E39A65"/>
<stop offset="0.4742" stop-color="#A92FFB"/>
<stop offset="0.5875" stop-color="#891CFB"/>
<stop offset="0.7262" stop-color="#6507FA"/>
<stop offset="1" stop-color="#3919BB"/>
</radialGradient>
<linearGradient id="paint8_linear_637_55" x1="121.23" y1="76.8052" x2="202.958" y2="76.8052" gradientUnits="userSpaceOnUse">
<stop stop-color="#3919BB"/>
<stop offset="1" stop-color="#6507FA"/>
</linearGradient>
<radialGradient id="paint9_radial_637_55" cx="0" cy="0" r="1" gradientUnits="userSpaceOnUse" gradientTransform="translate(72.7868 28.3702) scale(158.85 158.464)">
<stop stop-color="#E39A65"/>
<stop offset="0.4742" stop-color="#A92FFB"/>
<stop offset="0.5875" stop-color="#891CFB"/>
<stop offset="0.7262" stop-color="#6507FA"/>
<stop offset="1" stop-color="#3919BB"/>
</radialGradient>
<linearGradient id="paint10_linear_637_55" x1="65.4903" y1="87.167" x2="100.551" y2="87.167" gradientUnits="userSpaceOnUse">
<stop stop-color="#E39A65"/>
<stop offset="1" stop-color="#E95F8D"/>
</linearGradient>
<clipPath id="clip0_637_55">
<rect width="274" height="205" fill="white"/>
</clipPath>
</defs>
</svg>
