<svg width="45" height="45" viewBox="0 0 45 45" fill="none" xmlns="http://www.w3.org/2000/svg">
<rect x="1.21622" y="1.21622" width="42.5676" height="42.5676" rx="21.2838" stroke="url(#paint0_linear_551_80)" stroke-width="2.43243"/>
<path d="M31.3099 17.4654H25.988V16.1437H31.3099V17.4654ZM22.4454 22.8863C22.7881 23.4184 22.9594 24.0643 22.9594 24.822C22.9594 25.6063 22.7657 26.3097 22.373 26.9312C22.1308 27.3339 21.8132 27.6862 21.4376 27.9687C20.9975 28.3011 20.4871 28.5282 19.9457 28.6328C19.3315 28.7552 18.7064 28.8148 18.0802 28.8105H12.1283V15.5946H18.5112C20.1191 15.6212 21.2588 16.0873 21.9335 17.0025C22.3379 17.5644 22.538 18.2369 22.538 19.0212C22.538 19.8289 22.3358 20.4749 21.9271 20.9665C21.7005 21.2421 21.3653 21.4922 20.9215 21.7189C21.593 21.9647 22.1027 22.3521 22.4443 22.8863H22.4454ZM15.1771 20.8058H17.9727C18.5473 20.8058 19.0124 20.6962 19.3699 20.4781C19.7275 20.2599 19.9063 19.8715 19.9063 19.316C19.9063 18.7009 19.67 18.2933 19.1965 18.0965C18.7889 17.9602 18.2685 17.89 17.6364 17.89H15.1761V20.8058H15.1771ZM20.1755 24.6336C20.1755 23.9472 19.8946 23.4726 19.3348 23.2183C19.0209 23.0725 18.5793 22.9991 18.0131 22.9938H15.1761V26.5161H17.9706C18.5442 26.5161 18.9879 26.4406 19.3082 26.2842C19.8861 25.9958 20.1766 25.4477 20.1766 24.6336H20.1755ZM33.2839 22.484C33.3478 22.9161 33.3776 23.5429 33.3659 24.3633H26.4733C26.5116 25.3147 26.8393 25.9798 27.4629 26.3608C27.8386 26.5992 28.293 26.7162 28.8272 26.7162C29.3891 26.7162 29.8477 26.5736 30.2 26.281C30.3926 26.1267 30.5618 25.9085 30.7086 25.6318H33.235C33.169 26.1937 32.8646 26.7641 32.3187 27.343C31.4717 28.2635 30.284 28.7254 28.758 28.7254C27.4981 28.7254 26.3871 28.3359 25.4229 27.5601C24.462 26.7811 23.9799 25.519 23.9799 23.7674C23.9799 22.1254 24.413 20.8686 25.2825 19.9939C26.1551 19.117 27.281 18.6807 28.6686 18.6807C29.4923 18.6807 30.233 18.8275 30.8949 19.1234C31.5547 19.4192 32.0995 19.8853 32.5294 20.5249C32.9179 21.0889 33.1679 21.7402 33.285 22.483L33.2839 22.484ZM30.797 22.7298C30.7512 22.0722 30.5309 21.5742 30.1361 21.2336C29.7434 20.8931 29.2529 20.7218 28.6686 20.7218C28.0323 20.7218 27.5406 20.9048 27.1926 21.2645C26.8415 21.6231 26.6222 22.1116 26.5329 22.7298H30.797Z" fill="white"/>
<defs>
<linearGradient id="paint0_linear_551_80" x1="-17.4375" y1="-4.67082e-07" x2="53.4375" y2="54.5625" gradientUnits="userSpaceOnUse">
<stop stop-color="#B71774"/>
<stop offset="1" stop-color="#454CC2"/>
</linearGradient>
</defs>
</svg>
