<svg width="45" height="45" viewBox="0 0 45 45" fill="none" xmlns="http://www.w3.org/2000/svg">
<rect x="1.21622" y="1.21622" width="42.5676" height="42.5676" rx="21.2838" stroke="url(#paint0_linear_551_76)" stroke-width="2.43243"/>
<g clip-path="url(#clip0_551_76)">
<path d="M21.77 9.72998C18.3045 9.72998 17.8688 9.74594 16.5072 9.8066C15.1456 9.87045 14.2181 10.0843 13.4057 10.4004C12.5534 10.721 11.7815 11.2238 11.1438 11.8737C10.4942 12.5118 9.99144 13.2836 9.67042 14.1356C9.35437 14.9465 9.13887 15.8755 9.07662 17.2324C9.01596 18.5971 9 19.0313 9 22.5016C9 25.9686 9.01596 26.4028 9.07662 27.7644C9.14047 29.1244 9.35437 30.0518 9.67042 30.8643C9.99766 31.704 10.4334 32.4159 11.1438 33.1262C11.8525 33.8365 12.5644 34.2739 13.4041 34.5996C14.2181 34.9156 15.144 35.1311 16.504 35.1934C17.8672 35.254 18.3013 35.27 21.77 35.27C25.2387 35.27 25.6712 35.254 27.0344 35.1934C28.3928 35.1295 29.3235 34.9156 30.1359 34.5996C30.9876 34.2788 31.759 33.776 32.3962 33.1262C33.1066 32.4159 33.5423 31.704 33.8696 30.8643C34.184 30.0518 34.3995 29.1244 34.4634 27.7644C34.524 26.4028 34.54 25.9686 34.54 22.5C34.54 19.0313 34.524 18.5971 34.4634 17.234C34.3995 15.8755 34.184 14.9465 33.8696 14.1356C33.5486 13.2836 33.0458 12.5117 32.3962 11.8737C31.7587 11.2236 30.9867 10.7207 30.1343 10.4004C29.3203 10.0843 28.3912 9.86885 27.0328 9.8066C25.6696 9.74594 25.2371 9.72998 21.7668 9.72998H21.7716H21.77ZM20.6255 12.0318H21.7716C25.1812 12.0318 25.585 12.0429 26.9307 12.1052C28.1758 12.1611 28.8526 12.3702 29.3027 12.5442C29.8981 12.7756 30.3243 13.0534 30.7713 13.5003C31.2182 13.9473 31.4944 14.3719 31.7258 14.9689C31.9014 15.4174 32.1089 16.0942 32.1648 17.3393C32.227 18.6849 32.2398 19.0888 32.2398 22.4968C32.2398 25.9048 32.227 26.3102 32.1648 27.6559C32.1089 28.9009 31.8998 29.5762 31.7258 30.0263C31.5211 30.5808 31.1943 31.0821 30.7697 31.4933C30.3227 31.9402 29.8981 32.2164 29.3011 32.4478C28.8542 32.6234 28.1773 32.8309 26.9307 32.8884C25.585 32.949 25.1812 32.9634 21.7716 32.9634C18.362 32.9634 17.9566 32.949 16.6109 32.8884C15.3658 32.8309 14.6906 32.6234 14.2405 32.4478C13.6858 32.2434 13.184 31.9172 12.7719 31.4933C12.3469 31.0815 12.0197 30.5797 11.8142 30.0247C11.6402 29.5762 11.4311 28.8993 11.3752 27.6543C11.3146 26.3086 11.3018 25.9048 11.3018 22.4936C11.3018 19.084 11.3146 18.6818 11.3752 17.3361C11.4327 16.091 11.6402 15.4142 11.8158 14.9641C12.0472 14.3687 12.325 13.9425 12.7719 13.4955C13.2189 13.0486 13.6435 12.7724 14.2405 12.541C14.6906 12.3654 15.3658 12.1579 16.6109 12.1004C17.789 12.0461 18.2455 12.0302 20.6255 12.0286V12.0318ZM28.5876 14.1516C28.3863 14.1516 28.1871 14.1912 28.0012 14.2682C27.8152 14.3453 27.6463 14.4581 27.504 14.6004C27.3617 14.7427 27.2488 14.9116 27.1718 15.0976C27.0948 15.2835 27.0552 15.4828 27.0552 15.684C27.0552 15.8852 27.0948 16.0845 27.1718 16.2704C27.2488 16.4563 27.3617 16.6253 27.504 16.7676C27.6463 16.9099 27.8152 17.0227 28.0012 17.0997C28.1871 17.1768 28.3863 17.2164 28.5876 17.2164C28.994 17.2164 29.3838 17.0549 29.6712 16.7676C29.9585 16.4802 30.12 16.0904 30.12 15.684C30.12 15.2776 29.9585 14.8878 29.6712 14.6004C29.3838 14.313 28.994 14.1516 28.5876 14.1516ZM21.7716 15.9426C20.9018 15.929 20.0379 16.0886 19.2303 16.4121C18.4228 16.7356 17.6876 17.2165 17.0677 17.8268C16.4478 18.4372 15.9554 19.1647 15.6194 19.9671C15.2833 20.7696 15.1103 21.6308 15.1103 22.5008C15.1103 23.3707 15.2833 24.232 15.6194 25.0344C15.9554 25.8368 16.4478 26.5644 17.0677 27.1747C17.6876 27.7851 18.4228 28.266 19.2303 28.5894C20.0379 28.9129 20.9018 29.0725 21.7716 29.059C23.4932 29.0321 25.1352 28.3293 26.3432 27.1024C27.5512 25.8754 28.2283 24.2226 28.2283 22.5008C28.2283 20.7789 27.5512 19.1262 26.3432 17.8992C25.1352 16.6722 23.4932 15.9694 21.7716 15.9426ZM21.7716 18.2428C22.9007 18.2428 23.9835 18.6913 24.7819 19.4897C25.5803 20.2881 26.0288 21.3709 26.0288 22.5C26.0288 23.6291 25.5803 24.7119 24.7819 25.5103C23.9835 26.3087 22.9007 26.7572 21.7716 26.7572C20.6425 26.7572 19.5597 26.3087 18.7613 25.5103C17.9629 24.7119 17.5144 23.6291 17.5144 22.5C17.5144 21.3709 17.9629 20.2881 18.7613 19.4897C19.5597 18.6913 20.6425 18.2428 21.7716 18.2428Z" fill="white"/>
</g>
<defs>
<linearGradient id="paint0_linear_551_76" x1="-17.4375" y1="-4.67082e-07" x2="53.4375" y2="54.5625" gradientUnits="userSpaceOnUse">
<stop stop-color="#B71774"/>
<stop offset="1" stop-color="#454CC2"/>
</linearGradient>
<clipPath id="clip0_551_76">
<rect width="25.54" height="25.54" fill="white" transform="translate(9 9.72998)"/>
</clipPath>
</defs>
</svg>
