<svg width="45" height="45" viewBox="0 0 45 45" fill="none" xmlns="http://www.w3.org/2000/svg">
<rect x="1.21622" y="1.21622" width="42.5676" height="42.5676" rx="21.2838" stroke="url(#paint0_linear_551_78)" stroke-width="2.43243"/>
<path d="M33.368 24.3293V32.1818H28.8155V24.855C28.8155 23.014 28.1568 21.7583 26.5094 21.7583C25.2516 21.7583 24.5024 22.6053 24.1736 23.4237C24.0533 23.7163 24.0225 24.1239 24.0225 24.5336V32.1818H19.4679C19.4679 32.1818 19.5296 19.7736 19.4679 18.487H24.0225V20.4281L23.9927 20.4727H24.0225V20.4281C24.6269 19.4969 25.7071 18.1656 28.1259 18.1656C31.1215 18.1656 33.368 20.1237 33.368 24.3293ZM14.7046 11.886C13.1478 11.886 12.1283 12.9076 12.1283 14.2516C12.1283 15.5659 13.118 16.6183 14.6451 16.6183H14.6748C16.2636 16.6183 17.2501 15.5659 17.2501 14.2516C17.2225 12.9076 16.2647 11.886 14.7057 11.886H14.7046ZM12.3986 32.1818H16.9511V18.487H12.3986V32.1818Z" fill="white"/>
<defs>
<linearGradient id="paint0_linear_551_78" x1="-17.4375" y1="-4.67082e-07" x2="53.4375" y2="54.5625" gradientUnits="userSpaceOnUse">
<stop stop-color="#B71774"/>
<stop offset="1" stop-color="#454CC2"/>
</linearGradient>
</defs>
</svg>
