<svg width="45" height="45" viewBox="0 0 45 45" fill="none" xmlns="http://www.w3.org/2000/svg">
<rect x="1.21622" y="1.21622" width="42.5676" height="42.5676" rx="21.2838" stroke="url(#paint0_linear_551_84)" stroke-width="2.43243"/>
<path fill-rule="evenodd" clip-rule="evenodd" d="M30.6438 13.441C29.4632 12.2598 28.0606 11.3238 26.5167 10.6868C24.9729 10.0499 23.3183 9.72459 21.6482 9.72967C14.6394 9.72967 8.9338 15.4067 8.93095 22.3859C8.92785 24.6082 9.51365 26.7917 10.6287 28.714L8.82434 35.2702L15.5658 33.5103C17.4319 34.5212 19.5208 35.0503 21.6431 35.0496H21.6482C28.6565 35.0496 34.3615 29.3719 34.3649 22.3933C34.3691 20.729 34.0423 19.0804 33.4035 17.5434C32.7647 16.0065 31.8266 14.612 30.6438 13.441ZM21.6482 32.9134H21.6436C19.7517 32.914 17.8941 32.4077 16.2642 31.4471L15.8782 31.2191L11.8778 32.2635L12.9456 28.3817L12.6942 27.9826C11.6363 26.3078 11.0758 24.3669 11.078 22.3859C11.078 16.5863 15.8218 11.8676 21.6522 11.8676C24.4491 11.8626 27.1335 12.9687 29.1149 14.9427C31.0963 16.9168 32.2124 19.597 32.2179 22.3939C32.2156 28.1941 27.4741 32.9134 21.6482 32.9134ZM27.4456 25.0352C27.128 24.8767 25.5642 24.1116 25.2746 24.0062C24.985 23.9007 24.7712 23.8477 24.5597 24.1646C24.3482 24.4816 23.7388 25.1908 23.5535 25.4046C23.3682 25.6184 23.1829 25.6418 22.8654 25.4833C22.5478 25.3248 21.5233 24.9913 20.3096 23.9138C19.3649 23.0752 18.7276 22.0399 18.5423 21.7235C18.357 21.4071 18.5223 21.2355 18.6814 21.0781C18.8245 20.9362 18.9989 20.7087 19.158 20.524C19.3171 20.3393 19.3701 20.207 19.4755 19.9961C19.581 19.7851 19.5286 19.6004 19.4493 19.4425C19.3701 19.2846 18.7344 17.7276 18.4699 17.0942C18.2116 16.4774 17.95 16.5612 17.755 16.5515C17.5697 16.5424 17.3559 16.5401 17.1455 16.5401C16.9847 16.5443 16.8265 16.5816 16.6807 16.6497C16.535 16.7177 16.4048 16.8151 16.2984 16.9358C16.007 17.2527 15.1861 18.0189 15.1861 19.5742C15.1861 21.1294 16.3263 22.6345 16.4837 22.8454C16.641 23.0564 18.7242 26.2506 21.9116 27.6206C22.5035 27.8741 23.1082 28.0963 23.7234 28.2865C24.4845 28.5271 25.1771 28.4934 25.7244 28.4119C26.335 28.3212 27.6058 27.6468 27.8697 26.908C28.1337 26.1691 28.1342 25.5363 28.055 25.4046C27.9758 25.2729 27.7637 25.1931 27.4456 25.0352Z" fill="white"/>
<defs>
<linearGradient id="paint0_linear_551_84" x1="-17.4375" y1="-4.67082e-07" x2="53.4375" y2="54.5625" gradientUnits="userSpaceOnUse">
<stop stop-color="#B71774"/>
<stop offset="1" stop-color="#454CC2"/>
</linearGradient>
</defs>
</svg>
