<svg width="50" height="50" viewBox="0 0 50 50" fill="none" xmlns="http://www.w3.org/2000/svg">
<g clip-path="url(#clip0_516_43)">
<path d="M4.492 45.0018L0 0H49.376L44.878 44.9946L24.658 50L4.492 45.0018Z" fill="#1572B6"/>
<path d="M24.688 46.1751L41.028 42.1304L44.872 3.68042H24.688V46.1751Z" fill="#33A9DC"/>
<path d="M24.688 19.984H32.868L33.432 14.3322H24.688V8.81256H40.188L40.04 10.293L38.522 25.5037H24.688V19.984Z" fill="white"/>
<path d="M24.726 34.3179L24.698 34.3251L17.814 32.6644L17.374 28.2626H11.168L12.034 36.9286L24.696 40.0679L24.726 40.0608V34.3179Z" fill="#EBEBEB"/>
<path d="M32.342 25.2697L31.598 32.6607L24.704 34.3214V40.0643L37.376 36.9286L37.47 35.9964L38.544 25.2697H32.342Z" fill="white"/>
<path d="M24.71 8.81256V14.3322H9.778L9.654 13.0912L9.372 10.293L9.224 8.81256H24.71ZM24.688 19.984V25.5037H17.89L17.766 24.2626L17.486 21.4644L17.338 19.984H24.688Z" fill="#EBEBEB"/>
</g>
<defs>
<clipPath id="clip0_516_43">
<rect width="50" height="50" fill="white"/>
</clipPath>
</defs>
</svg>
