<svg width="50" height="50" viewBox="0 0 50 50" fill="none" xmlns="http://www.w3.org/2000/svg">
<rect width="50" height="50" rx="10" fill="#2C2C2C"/>
<g clip-path="url(#clip0_492_58)">
<mask id="mask0_492_58" style="mask-type:luminance" maskUnits="userSpaceOnUse" x="12" y="5" width="27" height="40">
<path d="M39 5H12V45H39V5Z" fill="white"/>
</mask>
<g mask="url(#mask0_492_58)">
<path d="M18.75 45C22.476 45 25.5 42.0133 25.5 38.3333V31.6666H18.75C15.024 31.6666 12 34.6533 12 38.3333C12 42.0133 15.024 45 18.75 45Z" fill="#0ACF83"/>
<path d="M12 25C12 21.32 15.024 18.3334 18.75 18.3334H25.5V31.6667H18.75C15.024 31.6667 12 28.68 12 25Z" fill="#A259FF"/>
<path d="M12 11.6667C12 7.98666 15.024 5 18.75 5H25.5V18.3334H18.75C15.024 18.3334 12 15.3466 12 11.6667Z" fill="#F24E1E"/>
<path d="M25.5 5H32.25C35.976 5 39 7.98666 39 11.6667C39 15.3466 35.976 18.3334 32.25 18.3334H25.5V5Z" fill="#FF7262"/>
<path d="M39 25C39 28.68 35.976 31.6667 32.25 31.6667C28.524 31.6667 25.5 28.68 25.5 25C25.5 21.32 28.524 18.3334 32.25 18.3334C35.976 18.3334 39 21.32 39 25Z" fill="#1ABCFE"/>
</g>
</g>
<defs>
<clipPath id="clip0_492_58">
<rect width="27" height="40" fill="white" transform="translate(12 5)"/>
</clipPath>
</defs>
</svg>
