<svg width="50" height="50" viewBox="0 0 50 50" fill="none" xmlns="http://www.w3.org/2000/svg">
<g clip-path="url(#clip0_516_38)">
<path d="M4.48587 44.9204L0 0H49.2907L44.7989 44.9133L24.6154 49.9096L4.48587 44.9204Z" fill="#E44F26"/>
<path d="M24.6453 46.0916L40.9557 42.0543L44.7928 3.67377H24.6453V46.0916Z" fill="#F1662A"/>
<path d="M24.6453 20.3328H16.4801L15.9171 14.6912H24.6453V9.18152H9.17334L9.32108 10.661L10.8363 25.8424H24.6453V20.3328ZM24.6453 34.6408L24.6173 34.6479L17.7458 32.992L17.3066 28.5981H11.1118L11.9762 37.2468L24.6173 40.3804L24.6453 40.3732V34.6408Z" fill="#EBEBEB"/>
<path d="M24.6234 20.3328V25.8424H32.2216L31.5069 32.9884L24.6234 34.6462V40.3786L37.2745 37.2468L37.3663 36.3163L38.8157 21.8122L38.9674 20.3328H24.6234ZM24.6234 9.18152V14.6912H39.5284L39.6522 13.4542L39.9337 10.661L40.0814 9.18152H24.6234Z" fill="white"/>
</g>
<defs>
<clipPath id="clip0_516_38">
<rect width="50" height="50" fill="white"/>
</clipPath>
</defs>
</svg>
