<svg width="50" height="50" viewBox="0 0 50 50" fill="none" xmlns="http://www.w3.org/2000/svg">
<g clip-path="url(#clip0_492_59)">
<path d="M8.76819 0H40.7455C45.594 0 49.5137 4.0597 49.5137 9.08134V40.9187C49.5137 45.9403 45.594 50 40.7455 50H8.76819C3.91971 50 0 45.9403 0 40.9187V9.08134C0 4.0597 3.91971 0 8.76819 0Z" fill="#001E36"/>
<path d="M17.7426 12.7135C17.1236 12.7135 16.5048 12.7135 15.8653 12.7352C15.2255 12.7564 14.6271 12.7564 14.07 12.7781C13.513 12.7993 12.9973 12.7993 12.5023 12.8205C12.0276 12.8417 11.6977 12.8417 11.3468 12.8417C11.2025 12.8417 11.1406 12.9271 11.1406 13.0769V35.0641C11.1406 35.2564 11.223 35.3422 11.3882 35.3422H15.3907C15.5349 35.3205 15.6382 35.1923 15.6173 35.0429V28.1839C16.0092 28.1839 16.2982 28.1839 16.5048 28.2051C16.7109 28.2264 17.0409 28.2264 17.5361 28.2264C19.228 28.2264 20.7753 28.034 22.178 27.5C23.5191 26.9872 24.6745 26.0898 25.4996 24.8931C26.3248 23.6964 26.7374 22.1793 26.7374 20.3417C26.7374 19.3802 26.5726 18.4615 26.2632 17.5641C25.9353 16.6498 25.4216 15.8191 24.7569 15.1282C23.9724 14.3388 23.028 13.7402 21.9923 13.3758C20.8368 12.9271 19.4342 12.7135 17.7426 12.7135ZM18.2029 16.9223C18.9379 16.9367 19.6535 17.0697 20.3211 17.3501C20.9196 17.5853 21.4147 18.0128 21.7655 18.5681C22.0946 19.1428 22.2592 19.8025 22.2402 20.4704C22.2402 21.4103 22.0336 22.137 21.6004 22.6711C21.1462 23.2051 20.5687 23.6114 19.9088 23.8037C19.1452 24.0601 18.3406 24.1879 17.5361 24.1879H16.4424C16.1948 24.1879 15.9272 24.1666 15.6382 24.1455V16.9659C15.7825 16.9443 16.0715 16.9231 16.4842 16.9447C16.8761 16.9231 17.3504 16.9231 17.8868 16.9231C17.9926 16.9204 18.098 16.9201 18.2029 16.9223ZM35.5056 18.0132C34.0407 18.0132 32.8234 18.248 31.854 18.7608C30.967 19.1883 30.2034 19.8718 29.6878 20.7264C29.234 21.5173 28.9861 22.3931 28.9861 23.3121C28.9684 24.068 29.1315 24.8167 29.4607 25.4915C29.8466 26.2102 30.3823 26.8306 31.0289 27.3077C31.9364 27.9506 32.9212 28.4678 33.9583 28.8462C34.9691 29.252 35.6499 29.5725 35.9803 29.8501C36.3102 30.1282 36.4754 30.4058 36.4754 30.7051C36.4754 31.0898 36.2483 31.4531 35.9184 31.6025C35.547 31.7948 34.99 31.9018 34.2059 31.9018C33.3808 31.9018 32.5553 31.7948 31.7712 31.5814C30.8709 31.3731 30.0077 31.0198 29.2131 30.5345C29.1512 30.4915 29.0893 30.4704 29.0274 30.5132C28.9655 30.5556 28.945 30.641 28.945 30.7051V34.4231C28.9246 34.5941 29.0274 34.7436 29.1721 34.8289C29.8411 35.1526 30.5488 35.3826 31.2765 35.5128C32.2049 35.7051 33.1329 35.7905 34.0817 35.7905C35.5671 35.7905 36.8054 35.5556 37.8161 35.107C38.7445 34.7223 39.5491 34.0601 40.1267 33.2051C40.6675 32.3646 40.9482 31.3733 40.9312 30.3634C40.9516 29.6005 40.7886 28.8442 40.457 28.1626C40.0648 27.4359 39.5077 26.8377 38.8269 26.389C37.8309 25.7412 36.7645 25.2175 35.6499 24.8289C35.1522 24.6156 34.6634 24.3803 34.185 24.1238C33.9169 23.9744 33.6693 23.7821 33.4836 23.5469C33.3599 23.3758 33.2775 23.1839 33.2775 22.9915C33.2775 22.7993 33.3394 22.5857 33.4423 22.4147C33.587 22.2011 33.8136 22.0513 34.0817 21.9872C34.474 21.8806 34.9072 21.8161 35.3196 21.8373C36.1036 21.8373 36.8668 21.9443 37.6305 22.1154C38.3322 22.2648 38.9921 22.5 39.611 22.8422C39.6934 22.8846 39.7967 22.8846 39.9824 22.8422C40.0146 22.8174 40.0407 22.7851 40.0587 22.748C40.0767 22.7108 40.0859 22.6698 40.0856 22.6282V19.1455C40.0856 19.0597 40.0648 18.9744 40.0442 18.889C40.0029 18.8037 39.9205 18.718 39.838 18.6967C39.2691 18.4558 38.6729 18.2906 38.0637 18.2051C37.2166 18.0773 36.3617 18.0135 35.5056 18.0132Z" fill="#31A8FF"/>
</g>
<defs>
<clipPath id="clip0_492_59">
<rect width="50" height="50" fill="white"/>
</clipPath>
</defs>
</svg>
